<?xml version="1.0" standalone="no"?>
<!DOCTYPE svg PUBLIC "-//W3C//DTD SVG 1.1//EN" "http://www.w3.org/Graphics/SVG/1.1/DTD/svg11.dtd" >
<svg xmlns="http://www.w3.org/2000/svg">
<metadata></metadata>
<defs>
<font id="swistblnk_banthersregular" horiz-adv-x="868" >
<font-face units-per-em="2048" ascent="1536" descent="-512" />
<missing-glyph horiz-adv-x="657" />
<glyph horiz-adv-x="0" />
<glyph unicode="&#xd;" horiz-adv-x="720" />
<glyph horiz-adv-x="0" />
<glyph horiz-adv-x="0" />
<glyph unicode=" "  horiz-adv-x="657" />
<glyph unicode="&#x09;" horiz-adv-x="657" />
<glyph unicode="&#xa0;" horiz-adv-x="657" />
<glyph unicode="A" horiz-adv-x="905" d="M1501 -180q18 -8 21.5 -27.5t-2.5 -48.5q-16 -72 -79 -130t-145 -75q-35 -8 -84 -8q-88 0 -165 33q-59 25 -103 57q-20 18 -41.5 43t-44.5 47q-20 25 -31.5 41.5t-19.5 30.5t-16.5 31.5t-22.5 46.5q-12 27 -20.5 44t-14.5 30.5t-10 27.5t-10 37v2q0 2 -3 13.5t-7.5 23.5 t-7.5 23.5t-5 13.5q0 6 -2 10q-4 10 -7 22.5t-3 16.5q-4 16 -13.5 35.5t-21.5 38t-25.5 32t-21.5 17.5q-6 4 -27.5 11t-44.5 13q-20 4 -30.5 8.5t-16.5 8.5q-16 10 -31.5 15t-44.5 11q-37 10 -59.5 10.5t-37.5 -10t-26.5 -31t-25.5 -48.5q0 -4 -2 -7q-2 -6 -3 -13t-5 -11 q-2 -18 -6.5 -38t-14.5 -42q0 -10 -4 -26.5t-4 -26.5q0 -4 -1 -5t-1 -6v-14q2 -4 2 -20.5t-8 -20.5q-2 -2 -4 -2q-4 -6 -13 -6h-49h-32.5t-20.5 2q-4 2 -6 2t-4 2q-10 2 -19.5 7t-5.5 22q6 14 12 20q2 4 4.5 6t4.5 4q4 6 9 18.5t7 16.5q10 20 10 21q2 2 6.5 14t9.5 27.5 t10 30t5 22.5q2 8 11.5 52t21.5 97.5t24.5 101.5t16.5 64q0 8 4 17v4q2 6 6 21.5t27 74.5q0 6 1 10t1 9q2 8 8 32.5t14 57t16.5 71.5t16.5 74q6 20 6 29q4 12 4 20q4 8 5 18.5t3 18.5q2 23 1 37t-1 18q-6 18 -1 26.5t10 12.5q8 4 26 4q27 0 58 -8h17t17 2q16 2 34 2h34 q12 2 23.5 3t17.5 1q12 0 24 -4q6 -4 12.5 -17t-1.5 -30q0 -4 1 -17.5t1 -17.5q4 -10 6 -23t6 -26q2 -4 2 -10t2 -10q0 -4 2 -11.5t4 -17.5t5 -22.5t9.5 -37t16.5 -66.5t25 -109q2 -4 3 -8.5t3 -10.5q2 -12 7 -31.5t28 -85.5q4 -16 15 -64t24.5 -100.5t23.5 -96.5t10 -52 q2 -8 6.5 -22.5t8.5 -30t8 -28.5t6 -15q0 -8 6 -27q4 -10 8 -22q2 -4 4 -12.5t4 -14.5t2.5 -12t2.5 -13q12 -25 18 -51t16 -53q6 -16 19.5 -40t30.5 -48q4 -6 12 -17.5t18 -23.5q18 -18 40 -36.5t44 -39.5q23 -16 52.5 -27.5t56.5 -15.5q10 0 27.5 -3t70.5 -3 q29 0 54.5 11.5t54.5 23.5l4 4q2 0 2 1t2 1q4 4 9 11t11 14q0 2 7.5 10t7.5 12q4 6 4 14.5t2 14.5q4 23 10 35t29 18q14 8 34.5 1t28.5 -11zM543 389q25 0 45 14.5t12 47.5q-6 25 -9 37t-13 34q-2 4 -2.5 9.5t-2.5 9.5q-2 6 -4 15t-4 19q0 4 -2 11.5t-6 25t-12 49t-21 87.5 h-2v2q-2 4 -8 32q-6 23 -10 35t-7 18.5t-5.5 10.5t-2.5 8q-10 47 -33.5 58.5t-43.5 -35.5q-4 -25 -21 -95q-2 -6 -3 -14t-5 -24.5t-11 -46t-20 -81.5q-10 -12 -12 -21t-2 -20q0 -12 -4 -24q0 -2 -1 -4t-1 -6q-2 -20 13 -51t32 -41q29 -12 44 -19.5t22.5 -10.5t8.5 -3h1 q14 -4 19 -7t20 -8q23 -6 25.5 -7t6.5 -3q5 -2 19 -2z" />
<glyph unicode="B" horiz-adv-x="1054" d="M971 360q2 -16 3 -32.5t-3 -26.5q-4 -14 -6 -27.5t-4 -23.5q-2 -16 -9.5 -39t-17.5 -51q-4 -4 -14.5 -17.5t-22.5 -28t-22.5 -25.5t-14.5 -13h-2q-12 -4 -16 -8t-9.5 -5.5t-9.5 -5.5q-10 -4 -17 -9t-15 -9q-10 -4 -18.5 -8t-18.5 -8q-6 -4 -13.5 -6.5t-13.5 -6.5 q-23 -10 -45.5 -13t-44.5 -5q6 0 -7.5 0h-31.5t-34 1l-17 1q-10 2 -25.5 3t-25.5 1h-11q0 2 -16 2q-10 0 -25.5 -1t-31.5 -1h-86q-35 0 -46.5 1t-15.5 1q-4 2 -17.5 -1t-19.5 -3q-4 0 -10 -1t-12 -1q-4 -2 -12 -2q-33 -6 -42.5 -7t-33.5 -10q-10 -6 -25.5 -11t-30.5 -5 q-10 0 -12 2q-8 2 -19.5 11.5t-15.5 17.5q-12 20 -10 28.5t21 24.5q23 18 44 27.5t40 19.5q25 14 39 22.5t23 26t15.5 50t10.5 94.5q2 16 2 35.5v37.5q2 16 2 30.5t2 31.5v8q0 8 -10 12l-9 4h-6h-8q-4 0 -5 -1t-5 -1q-8 0 -17 6q-12 8 -24.5 28t-7.5 36q0 8 6 12q0 4 4 4 q12 10 27.5 22.5t25.5 18.5q20 10 25 45q0 2 1 4t1 7q4 20 5 31.5t1 21.5t-1 22.5t1 34.5q2 16 3 30.5t-1 20.5q-2 4 -2 10.5t-2 10.5q0 6 1 12t-1 12v13.5t2 31.5q2 18 3 31t1 23q-2 10 -10 21.5t-19 13.5h-2q-4 0 -9 1t-9 1t-7 -1t-8 -1q-6 -2 -16 -2q-14 0 -18 4t-13 14 v2l-2 2v8q0 10 -2 15q-2 25 21 36q4 2 5 3.5t5 3.5q8 4 14 6q6 4 12.5 5t10.5 3q10 0 31.5 2t44.5 6q29 4 54 7t36 3q10 2 19 2t20 2q8 2 15 2t17 3h5q2 0 19 2t38.5 3t39 3t19.5 2t3 -1t5 -1q8 0 13 -2q6 0 12 -1t12 -1h2q2 0 14.5 -2t14.5 -2q8 -2 20 -7q12 -4 31 -12 q4 -4 6 -5t4 -3q33 -27 52.5 -43t34 -33.5t24.5 -39t23 -58.5q16 -47 -2.5 -97.5t-38.5 -95.5q4 -6 14 -8h2q14 -10 44 -31.5t60.5 -49t55 -62.5t30.5 -74q2 -14 6.5 -35t6.5 -76zM309 670q0 -4 1 -9.5t1 -9.5q0 -6 1 -11t-1 -11q0 -8 4 -17q8 -4 17 -4q4 2 7 2t7 2 q10 4 17.5 6.5t17.5 6.5q12 6 35.5 14t48 16.5t47.5 16.5t37 14q6 2 18.5 11.5t24.5 18.5t22.5 17t12.5 12q16 25 30.5 45.5t20.5 41t0 42t-31 46.5q-2 2 -4 3t-6 5q-12 10 -19.5 21.5t-21.5 17.5q-4 4 -10 6t-11 6q-4 4 -8 3t-8 1q-12 6 -33.5 6t-44 -1t-45 -3t-37.5 0 q-4 0 -8 -2q-12 0 -18 -2q-53 -16 -54 -57q0 -29 -2 -50.5t-2 -50.5v-24zM852 317q4 59 -12.5 115.5t-51.5 91.5q-16 16 -40.5 29.5t-52 22t-55.5 9.5t-48 -7q-18 -8 -44 -19.5t-53.5 -22t-52 -19.5t-39.5 -13q-4 -2 -5 -3t-5 -3q-2 0 -4 -2l-8 -4q-16 -12 -32.5 -23.5 t-29.5 -34.5q-6 -12 -6 -24q-2 -6 -2 -19q-4 -16 -5 -25.5t1 -25.5q0 -6 1 -12t1 -13q0 -23 2 -32q2 -10 2 -39v-25.5t2 -17.5q2 -2 2 -4t2 -4q6 -18 11.5 -36t19.5 -28q14 -12 17 -12q4 -2 7 -3t7 -3q12 -4 20 -7q35 -4 65 -3t60 -3q16 -2 30.5 -3t29.5 -1q23 0 44 5t44 10 q6 2 27.5 9t35.5 15q12 8 13 8q10 8 21 15.5t26 17.5q41 29 46 62.5t9 80.5z" />
<glyph unicode="C" horiz-adv-x="788" d="M713 248q18 -10 29.5 -34t2.5 -42q-8 -16 -12 -22l-4 -9q-16 -31 -43 -55.5t-55 -46.5q-35 -29 -72 -37t-65 -10q-6 -2 -13.5 -1t-13.5 1h-4h-17h-2h-8q-8 -2 -15 -3t-18 -1q-18 2 -33.5 8t-29.5 12q-18 10 -44 19.5t-42 27.5q-37 27 -68.5 57.5t-57.5 74.5t-45.5 106.5 t-33.5 152.5q-4 10 -4 21.5v21.5q-6 45 -4 89q0 37 3 66.5t13 53.5l2 2q0 2 1 4.5t1 4.5q4 27 13.5 50t19.5 48q4 4 5 8t5 8q4 16 12.5 28.5t16.5 25.5q8 16 14 24l3.5 7l3.5 7t4 7.5t4 7.5q10 16 21.5 29.5t23.5 25.5q8 6 13 12.5t9 12.5q14 14 37 30q4 4 7 5.5t8 5.5 q18 12 36 22q35 20 50 25q41 16 88 12t94 -14q12 -4 16 -4q4 -2 8.5 -2t8.5 -5q8 -4 15 -7t13 -7q2 -2 4 -2t4 -2q6 -4 18.5 -9t22.5 -16l7 -6q4 -2 6 -4t6 -4q14 -10 29.5 -31.5t24.5 -49t11 -57.5t-10 -56q-4 -8 -8 -21q-10 -37 -36.5 -54.5t-51.5 -16.5t-40 17.5t-5 47.5 q2 16 12 29q16 16 15 43.5t-17 46.5q-18 23 -28.5 29t-32.5 16q-23 10 -39.5 11t-36.5 1h-4q-16 4 -31.5 0t-34.5 -6q-4 -4 -10 -4q-14 -2 -30.5 -11.5t-32 -22.5t-28.5 -28.5t-20 -27.5q-6 -4 -14 -21q-4 -8 -10 -14q-16 -18 -24.5 -39t-16.5 -45q-6 -16 -11 -33.5 t-16 -34.5q-10 -25 -12 -51q-2 -12 -3 -38.5t-1 -50.5t-1 -38t-1 -2q6 -80 23.5 -138.5t40 -101.5t46 -71.5t41.5 -48.5q45 -41 87 -44t106 5q18 6 33.5 14t31.5 19q4 4 10.5 9t12.5 11q4 4 5 6t5 6q10 10 19.5 20.5t17.5 26.5q2 2 2 3t2 4l2 2q4 6 13.5 13t23.5 7 q13 0 27 -10z" />
<glyph unicode="D" horiz-adv-x="940" d="M879 639q10 -51 8 -100.5t-6 -96.5q0 -10 -1 -18t-1 -18q-2 -8 -2 -25q0 -12 -1.5 -23.5t-3.5 -23.5q-4 -16 -4 -25q-4 -27 -10 -50t-16 -48q-14 -27 -33 -49q-12 -14 -25.5 -29.5t-29.5 -30.5q-25 -23 -49 -36q-4 -4 -10.5 -7.5t-10.5 -7.5q-6 -6 -10 -8q-4 -4 -17 -12 q-10 -8 -24.5 -14.5t-30.5 -10.5q-6 -2 -14 -4t-17 -4q-16 -4 -32.5 -8t-32.5 -4h-8q-16 2 -31.5 4t-28.5 4q-18 2 -37.5 4t-44.5 4h-49q-10 -2 -21.5 -2h-23.5h-14h-8q-18 0 -36 -3t-36 -7q-2 -2 -4 -2t-4 -2q-16 -10 -39 -21q-29 -16 -51 -33q-12 -12 -29 -12q-6 0 -18 4 q-8 4 -22.5 20.5t-14.5 30.5q-2 10 6 30t20 28q4 4 7.5 5t7.5 5q14 8 25 18.5t28 16.5q14 6 33.5 19.5t37 34t30 47t14.5 59.5q6 47 10 81.5t0 88.5q-2 18 -1 34.5t3 32.5q2 14 3 42t1 50v23q2 12 3 30.5t1 22.5v10q0 4 1 34t-1 63q2 23 3 41t-3 40q0 8 -1 8.5t-1 10.5 q0 47 -22.5 77.5t-71.5 28.5q-4 0 -8.5 1t-8.5 1q-14 2 -27.5 10.5t-17.5 22.5q-2 2 -1 11.5t2 21.5t4.5 22.5t7.5 16.5q10 10 31.5 13t23.5 3h23.5t41.5 2q25 0 56 2q14 0 22 -2q6 -2 23 -2q16 0 26 2h21q16 0 22 2h31h2q10 0 23 -4h4q4 -2 7 -2t7 -2q12 -4 19 -4 q31 -6 59 -18q18 -10 37 -13q10 -4 18 -5t17 -5q6 -6 33.5 -19.5t52.5 -33.5q10 -8 17 -14.5t11 -10.5l15 -14q14 -12 27.5 -26.5t25.5 -30.5t21.5 -33t17.5 -33q4 -4 5 -9t5 -9q18 -35 39 -78l6 -12q8 -16 14.5 -33t4.5 -35zM739 293q6 29 12.5 75t6.5 105t-13.5 133 t-46.5 160q-8 16 -14 25q-8 10 -14 19t-15.5 19.5t-24 24.5t-40.5 33q-10 6 -17.5 10t-17.5 8q-16 10 -27.5 15.5t-27.5 13.5q-29 12 -48.5 19.5t-45.5 7.5q-37 0 -53.5 -18.5t-20.5 -46.5t-3 -61.5t-1 -66.5q4 -29 2 -58.5t0 -60.5q0 -8 -1 -16t-1 -17q0 -8 -1 -14t-1 -12 v-45q2 -14 1 -27.5t-1 -28.5q0 -18 -2 -49.5t-3.5 -63.5t-2.5 -55.5t-1 -27.5v-2v-14.5t-2 -16.5q-4 -23 -2 -44t4 -44q4 -20 15 -29q8 -8 23.5 -14t19.5 -8q6 0 14 -4q4 0 6 -1t4 -1q6 -2 12.5 -2t10.5 -2q10 -2 19.5 -3.5t19.5 -3.5h16q14 0 23 -2q14 -2 30 4h2q4 4 13 5 q18 4 39.5 17t43 27.5t38 27t22.5 18.5q10 10 18.5 23.5t14.5 23.5t11 22.5t7 22.5z" />
<glyph unicode="E" horiz-adv-x="802" d="M1708 -193q14 -29 16 -50t-24 -40q-80 -63 -175 -97t-195.5 -38t-200 20.5t-189.5 80.5q-78 49 -148.5 108t-150.5 100q-25 16 -48.5 24.5t-47.5 16.5q-12 4 -36 10.5t-48.5 12.5t-47 11t-34.5 7h-41q-16 0 -33 2h-2q-12 2 -25.5 2h-25.5q-2 0 -4 -1t-6 -1 q-29 -2 -51.5 -6t-45.5 -8q-4 0 -7 -2t-7 -2q-4 -2 -18 -2q-23 -6 -40.5 -12t-33.5 -9q-14 -4 -24.5 -4t-20.5 -2h-4q-10 0 -25.5 6.5t-17.5 16.5t2 36.5t8 30.5q16 18 32.5 28.5t47.5 16.5h2q6 0 18 5q27 6 44.5 14t29.5 25.5t20.5 49t16.5 83.5q2 12 4 48t3 85t3 104 t2 105h4v22t-2 14q0 6 1 11.5t1 9.5q2 8 2 14q0 12 -1 22.5t-1 18.5v22.5t2 20.5q0 6 1 17.5t1 23.5v40t-6 55.5t-19 48t-38 20.5q-14 2 -17.5 1t-13.5 1q-27 4 -39 35t-8 47q0 18 17.5 26.5t38 11.5t39 4t22.5 1q-4 0 40 2t113 0h11h121h41h30.5t45 1t83.5 5q12 0 15 -2h12 h12t10 -2v-2q14 -12 13.5 -44t-4.5 -40q0 -4 -5 -12q-4 -10 -4 -18.5t-4 -8.5l-4 -4q0 -2 -4 -6q-10 -10 -20 -10q-6 0 -11.5 4t-11.5 8q-4 4 -8 7t-10 7q-10 4 -24.5 5.5t-22.5 1.5h-46h-17t-14 1t-25.5 1h-49.5h-47q-4 0 -10.5 -3.5t-10.5 -3.5q-18 -4 -39.5 -27.5 t-21.5 -47.5q0 -16 -1 -19.5t-1 -23.5q2 -4 1 -13.5t-1 -27.5v-64t2 -49q0 -10 1 -22.5t9 -16.5q4 -6 11.5 -8t13.5 0l4 4q4 0 10 4q8 0 25.5 5t36 10.5t35 6.5t22.5 -8q8 -10 7 -34.5t-7 -53.5v-6q0 -23 -19 -30l-6 -3q-6 0 -9 3.5t-9 5.5q-29 2 -44.5 -4.5t-29.5 -20.5 q-45 -37 -51 -72q-2 -41 -2 -71.5v-48.5q-2 -10 -1 -17.5t-1 -42.5q0 -23 1 -47t1 -37q0 -16 4 -24q6 -16 19.5 -26.5t32 -18t38 -11.5t35.5 -8q16 -2 46 -8t42 -10q37 -18 76 -29.5t61 -21.5q72 -35 135.5 -82t126.5 -95q80 -57 180.5 -98t200.5 -41q96 0 177 25.5 t153 83.5q10 8 16.5 12t28.5 8q10 0 23.5 -9.5t17.5 -19.5z" />
<glyph unicode="F" horiz-adv-x="774" d="M248 27q10 -14 11 -17.5t-3 -11.5q-2 0 -2 -2q-2 -2 -2 -3t-2 -3q-6 -6 -17.5 -8t-24.5 -3.5t-25.5 -1.5h-18.5q-23 -2 -33 -3t-14 6q-4 6 -4 7v7q0 20 7 29.5t7 31.5q-2 20 0 44t2 40q-2 2 -2 22.5v45t1 46t1 28.5q2 -6 2 25.5t-1 74.5t-1 84t2 51q2 23 3 47.5t1 48.5 q4 51 5 102.5t-1 102.5q4 14 3 26.5t1 26.5v16.5t-1 25t-5 23.5t-12 15q-12 6 -26.5 8.5t-26.5 6.5q-27 10 -37 29.5t-7 38t16 31.5t32 13h48t55.5 1t52 0t38.5 -5q18 -4 37 -1t39 7h6h28t56.5 2t57 4t30.5 5h8q8 -4 11 -5q16 4 30.5 2t30.5 -2q10 0 17 2q8 0 16 1.5 t16 -1.5q18 -2 37 0.5t35 -10.5q2 -6 3 -16t1 -21.5v-21.5t-2 -14t-3 -15.5t-4 -23t-8 -20.5t-16 -11q-16 -4 -33.5 9t-33.5 13q-23 -2 -43.5 4.5t-42.5 4.5q-45 -2 -85 1t-87 1q-20 0 -37 -1t-37 -10q-10 -4 -20.5 -19t-14.5 -26q-4 -8 -6 -22.5t0 -30.5q2 -33 0 -96 q-2 -14 -2 -34.5t5 -38t17.5 -28t36.5 -2.5q10 2 28.5 5.5t37 6.5t35 6t26.5 5q25 12 36 -5.5t14.5 -45t-1 -53t-10.5 -29.5q-10 -12 -20 -12q-6 2 -15.5 5t-23.5 4t-36 -3t-50 -17q-12 -4 -21 -10q-10 -8 -20 -14t-21 -15q-12 -10 -24 -75l-1 -20q-1 -21 -1 -45.5v-46 v-24.5v-30.5t-1 -47t-2 -45t-1 -24.5q0 -14 1 -40t-1 -42q0 -14 6 -20z" />
<glyph unicode="G" horiz-adv-x="890" d="M1001 -268q6 -16 0 -39t-10 -31q-10 -20 -34.5 -20t-53.5 10q-35 10 -68.5 34.5t-61.5 56.5t-49.5 69.5t-29.5 76.5q-4 12 -5 26.5t-3 29.5q-2 14 -2 30v2q-2 6 -3 18.5t-7 24t-20.5 15.5t-43.5 -6q-27 -16 -67.5 -26.5t-71.5 -10.5q-47 0 -86 7t-49 13l-6 2 q-8 4 -15.5 8.5t-13.5 8.5q-12 8 -20 14q-2 2 -5.5 3t-7.5 5q-14 10 -32.5 22.5t-34.5 28.5l-9.5 9.5t-11.5 13.5q-16 16 -38.5 43t-39.5 66q-4 8 -18 38.5t-18 73.5v10q-2 6 -3 19q0 4 -1 8t-1 10q-2 16 -4 29.5t-6 30.5q-2 12 -4 34.5t-4 46t-2 44t4 30.5q2 4 6 17 q4 20 8 24q4 10 11 41q4 10 5 19.5t3 13.5q8 18 21.5 45t26.5 54.5t24.5 48t15.5 26.5q10 18 35.5 45t56.5 52.5t62.5 47t54.5 27.5q2 0 14 4t26.5 8t27 7.5t16.5 5.5q14 4 30.5 6t30.5 2q6 0 11.5 -1t9.5 -1q4 -2 19 -5t28 -7q27 -6 41 -7q27 -6 57.5 -22.5t52.5 -36.5 q8 -6 15.5 -12t15.5 -11q4 -4 11 -9t12 -11q8 -4 16 -18q0 -2 1 -2t1 -3q6 -4 16.5 -23.5t1.5 -31.5l-2 -2q-8 -10 -38.5 -28.5t-53.5 -18.5t-25.5 23.5t-17.5 40.5q-14 16 -30.5 26t-26.5 14q-10 2 -27 11q-20 10 -46.5 13t-59.5 3q-10 0 -21.5 -2t-21.5 -6 q-45 -14 -87 -40t-77 -75q-25 -25 -38 -43t-21.5 -34.5t-15.5 -34t-19 -37.5q-2 -4 -8.5 -17.5t-18.5 -68.5q0 -4 -6 -31q-2 -8 -4 -14.5t-2 -10.5v-24q0 -8 2 -21.5t2 -23.5q-2 -20 0 -41t6 -27q0 -4 1 -9t1 -9q0 -10 2 -25.5t6 -34t9.5 -35t9.5 -24.5q10 -16 18 -24.5 t19 -24.5q-8 12 6 -5.5t41.5 -44t64.5 -51t72 -30.5q14 0 22 -2q4 0 11.5 -1t11.5 -1h8q41 0 87 32.5t83 69.5q12 12 22.5 39t20.5 43l2 6q4 4 6 21.5t4 37.5q2 14 3.5 19.5t5.5 19.5v2v29q0 51 -7.5 81t-14.5 45t-9 22.5t8 15.5q8 14 35 18q8 0 27.5 1t29.5 1q39 0 47 -18 l2 -2q2 -8 -2 -29q-4 -10 -4 -20q2 -18 3 -49t1 -64t-2 -63.5t-4 -48.5q-2 -20 -2 -40v-40v-105q0 -6 -1 -40t-1 -56v-80q4 -12 5 -21.5t5 -29.5q0 -4 7.5 -19.5t17.5 -32t22.5 -32.5t22.5 -23q2 0 10 -7t13 -7q8 -4 16 -5t14 -5q23 -8 35 -14t18 -33z" />
<glyph unicode="H" horiz-adv-x="784" d="M1368 -244q20 -10 20.5 -33.5t-6.5 -52.5q-8 -39 -29.5 -74.5t-53 -64.5t-71.5 -50.5t-83 -29.5q-39 -8 -90 -8q-43 0 -89 9t-85 26q-16 6 -39 18q-6 2 -11.5 5t-13.5 7q-33 20 -61.5 46t-48.5 55q-23 29 -38.5 54.5t-27.5 51.5q-8 29 -14 63t-17 64q-6 39 -8 60.5 t-2 38.5v30v2v26.5t-1 37t-1 31.5v14q-2 10 -1 26.5t3 32.5v52v30q0 35 -4 73t-6 48q-6 27 -20.5 31t-30.5 20q-4 4 -13 8q-8 4 -10 7q-4 2 -7 4t-7 4q-8 4 -15.5 7t-15.5 9q-10 6 -43 23.5t-69.5 36t-70.5 35t-46 20.5q-6 2 -17 2q-10 0 -28.5 -17.5t-18.5 -44.5 q-4 -47 -2 -58t0 -19v-18.5t-1 -32t-1 -32v-16.5q2 -14 1 -47t-3 -73v-52q0 -16 1 -32.5t-1 -26.5q0 -4 1 -14.5t3 -12.5q10 -20 6 -30h-2q0 -4 -4 -13q-8 -14 -57 -14q-4 0 -17.5 1t-29 3t-28.5 5t-17 9q-6 0 -7 9q-2 4 0.5 8t4.5 10q4 4 9 13.5t7 33.5q-2 10 -1 24.5 t1 26.5q0 10 1 16.5t1 14.5q-2 8 -2 32.5v82.5v12t1 32.5t2 72t5 131.5v14l2 18q2 20 2 39t2 39v14q2 20 2 40v38q0 23 2 33q4 29 -2 51q-2 6 2 23v8q2 6 1 11t-1 14q-2 10 -2 28q2 4 3 15.5t-3 21.5v4q2 8 1 38t-5 48v6q-4 10 -4 20.5t4 20.5q4 2 5 4t5 7h3q8 4 31.5 4 h37.5h28.5t24.5 -2q18 -6 19 -27q2 -6 0 -12t-6 -15v-2q-10 -20 -12.5 -47.5t-6.5 -95.5v-31q0 -23 1 -50.5t5 -45.5q4 -16 19.5 -40t40.5 -36q29 -16 62.5 -35.5t63 -36t50 -28.5t25.5 -15q23 -6 45 -17t43.5 -14t38 6t26.5 44v63t2 94.5t4 90.5t2 51q0 16 -1 43t-3 31 q0 6 -1 12t-1 14q-2 10 -4 19.5t-6 17.5q-2 4 -6 8q-4 8 -5 12.5t-1 12.5q0 18 10 21t18 3h17q6 0 21.5 -1t32.5 -2t32.5 -2t21.5 -3q12 -6 19 -14q6 -6 1 -19.5t-12 -19.5q-4 -16 -6 -22t-2 -19.5t2 -19.5l-2 -9q-2 -10 -5 -30.5t-3 -24.5t1 -25.5t1 -46.5v-63 q0 -6 1 -14.5t-1 -18.5v-92q0 -20 1 -37.5t1 -40.5v-18q0 -10 2 -15q0 -10 1 -18t-1 -16q-2 -6 -2 -14.5v-29t1 -60.5t1 -109v-83t-4 -34v-14.5t2 -18.5v-18.5t-2 -20.5q2 -10 2 -17v-9v-29q0 -10 2 -25v-30l-2 -27q4 -23 3 -47.5t1 -50.5q10 -27 18.5 -53.5t18.5 -55.5 q12 -27 33.5 -54.5t44.5 -43.5q8 -4 17.5 -14.5t35.5 -26.5q20 -8 41 -14.5t39 -10.5q10 0 29.5 -3t72.5 -3q29 0 57.5 12.5t59.5 24.5q2 0 2 2l2 4q2 0 2 1t2 1q4 4 9.5 11.5t13.5 13.5q0 2 7 11t7 13q4 6 4 15.5t2 15.5q4 23 10.5 37t30.5 20q16 8 40 3t34 -9z" />
<glyph unicode="I" horiz-adv-x="243" d="M49 43q4 6 5 11t5 12q2 6 3 24.5t-1 22.5l1 9t2.5 20.5t1.5 21.5v14q-2 12 -1 25.5t-2 27.5q0 8 -2 15.5t0 13.5q8 20 5 41t0 43v92q0 25 1 49.5t1 46.5q0 23 -1 48.5t-6 48.5q4 23 5.5 47t1.5 43.5t-1 34t-4 14.5v27.5t1.5 46t2.5 44t1 23.5q4 16 2 40t2 44 q-2 18 -6.5 27.5t-7.5 14.5t-5 9.5t-2 14.5v7t4 7q4 4 25.5 6t48.5 1t50.5 -5t31.5 -10q4 -4 6 -11t-10 -20q-4 -4 -7 -18.5t-3 -18.5q4 -14 1 -39.5t-3 -39.5q-2 -6 -1 -42t1 -69v-4q0 -2 -1 -23.5t-2.5 -48t-2.5 -52.5t-1 -34v-33.5t2 -33.5v-19q2 -10 1 -18.5t2 -16.5 q0 -4 1 -7t-1 -7q0 -16 -1.5 -65.5t-3.5 -103.5t-4 -99t-2 -54q-2 -18 0 -44.5t6 -34.5v-13q0 -6 2 -12q2 -16 15 -35q6 -12 8 -15t2 -16q0 -14 -13.5 -14h-29.5q-6 0 -22.5 -2t-36 -3t-36 -2t-22.5 1q-10 2 -16 10q-6 6 0 17.5t10 17.5z" />
<glyph unicode="J" horiz-adv-x="700" d="M623 283q0 -14 -1 -27.5t-8 -26.5q-4 -10 -6 -19t-6 -20q-8 -20 -13 -39.5t-16 -39.5q-6 -14 -17 -26.5t-21 -25.5q-23 -23 -48 -41q-12 -10 -39.5 -15t-41.5 -15q-4 -2 -24 -4t-45.5 -3t-52 -1h-46.5q-49 10 -83 31.5t-65 49.5q-4 4 -6 5.5t-4 5.5q-23 23 -35 53.5 t-12 60.5q0 4 -1 7.5t-1 7.5q0 25 5 35t27 20q8 4 33 5t39 -1q20 -4 21 -16q4 -18 -3.5 -39t3.5 -39q12 -23 25.5 -37t41.5 -23q4 0 25.5 -9t32.5 -5q27 6 63.5 4t61.5 13q4 4 9 6t9 6q14 16 23.5 27.5t19.5 33.5q8 16 15 30.5t10 31.5q4 23 7 34t5 33q4 25 6 50.5t6 50.5 q0 8 -1 15t1 13q0 16 1 30.5t-3 31.5q-2 4 -2 12q0 18 1 36.5t1 37.5q0 4 -1 35.5t1 48.5v31.5t-1 40t-2 37t1 22.5q4 35 2 70.5t2 72.5q2 8 -2 25q2 33 0 52t-12 40q-8 20 10 29q8 4 27.5 5t40 1t38 -2t21.5 -2q20 -8 14 -29q-2 -4 -5 -9t-5 -12q-2 -10 -3 -46.5t-3 -53.5 q-2 -12 -3 -24.5t-1 -24.5q-2 -18 0 -37.5t2 -38.5q0 -12 -3 -26.5t1 -26.5q4 -16 4 -31.5t-2 -32.5q-2 -35 -3 -69.5t-3 -67.5q0 -31 1 -62.5t3 -62.5q0 -16 -1 -38.5t-3 -39.5q-2 -12 -5 -38.5t-1 -40.5z" />
<glyph unicode="K" horiz-adv-x="847" d="M1530 -256q20 -10 20 -33.5t-6 -52.5q-8 -39 -29.5 -75t-53 -64.5t-71.5 -50t-83 -29.5q-39 -8 -90 -8q-43 0 -89.5 9t-85.5 25q-16 6 -38 19q-6 2 -11.5 5t-13.5 7q-33 20 -61.5 46t-49.5 55q-20 25 -39.5 51t-35.5 55q-4 4 -19.5 31.5t-36 65.5t-45 82t-45 82t-34 63.5 t-15.5 29.5q0 10 -7 19.5t-11 25.5l-5 9q-2 6 -10 21t-10 20l-2 2q-6 10 -7 17t-5 15t-7.5 15.5t-9.5 13.5v2l-2 2q-8 20 -14 33.5t-16 30.5q-4 8 -11 16q-2 6 -10 18q0 4 -2 7v2q-14 12 -25 32q-2 4 -3 7.5t-3 7.5q-2 2 -3 4t-5 6q-27 43 -47.5 80t-24.5 43q-12 20 -26 20 q-6 0 -10.5 -3t-8.5 -5q-8 -8 -20 -16q-4 -4 -10.5 -6t-12.5 -11q-14 -14 -20 -18q-35 -27 -43 -53.5t-12 -67.5q-2 -4 -3.5 -28.5t1.5 -36.5q-2 -10 -2.5 -37t-0.5 -58v-104v-6q0 -8 -2 -13q2 -6 3.5 -11t3.5 -11q2 -10 4 -17.5t-2 -17.5q-2 -10 -17 -10q-6 0 -8 -2 q-16 -4 -27 -4h-14h-12q-10 -2 -16.5 -2h-12.5q-4 0 -17.5 2t-15.5 16q-4 12 2 23q4 10 7.5 30.5t1.5 73.5q-2 23 -1 43.5t3 38.5q0 14 1 28.5t1 26.5q0 31 -1 59.5t1 55.5v37v35v18.5t1 33.5t1 31.5v16.5v14q0 14 2 64.5t4 104t3 94t-1 38.5v25v15.5t-2 17.5q0 6 -2 32.5 t-2 36.5q0 12 -2 19q-2 6 -2 18q-4 20 16 25q4 2 21.5 3t33.5 1q20 0 41 -1t27 -7q10 -6 8 -15.5t-6 -17.5q0 -4 -1 -6t-1 -4q2 -10 1 -18.5t-3 -18.5t-3 -17.5t-1 -17.5q2 -8 0 -16v-2q0 -2 -1 -17.5t-1 -33t-1 -33t-1 -17.5q0 -8 -2 -12q-4 -45 2 -82v-31q0 -37 9 -51 t22.5 -14t31 12t33.5 29l4 2q16 18 35 35q10 10 19.5 19t19.5 20q6 4 11 11t11 13q8 12 17 21l18 18q6 8 13.5 14.5t13.5 12.5q4 4 7 9t7 9q4 2 24.5 26.5t43 54.5t42 55.5t21.5 31.5q2 8 6 17.5t15 13.5q20 4 63 4q35 0 52.5 -7t23.5 -18q6 -6 2 -18q-2 -6 -21 -21 q-16 -12 -22 -18q0 -4 -4 -8q-2 0 -2 -2q-10 -10 -27.5 -32t-27.5 -32q-8 -10 -15.5 -20.5t-13.5 -20.5q-10 -12 -18.5 -24.5t-18.5 -20.5q-8 -8 -12 -10q-2 -4 -4 -5t-5 -3q-12 -12 -24 -27.5t-23 -28.5q-12 -16 -23 -30.5t-28 -28.5q-4 -6 -10 -11t-10 -11q-8 -2 -15 -13 q-14 -16 -5 -29.5t20 -29.5q2 -4 3 -5t3 -5t4 -7.5t4 -7.5q4 -8 8 -12q4 -8 8 -10q4 -8 9.5 -16.5t9.5 -16.5q4 -10 10 -21.5t10 -21.5q6 -10 11.5 -20.5t11.5 -20.5l4 -8t6 -8t4 -9q8 -12 13.5 -21t9.5 -20q4 -10 9 -20t15 -23q4 -6 7.5 -13t7.5 -13q4 -8 7 -16.5t7 -14.5 q10 -10 15 -19.5t12 -19.5q4 -8 6 -10q8 -10 8 -17.5t4 -11.5q4 -6 6 -11t10 -19l6 -12q7 -11 14 -24.5t12 -24.5l5 -11q4 -6 6 -12.5t7 -12.5q8 -10 11 -21t11 -24q0 -2 17.5 -32.5t40 -72.5t46 -84t35.5 -67l2 -2q4 -6 7.5 -12t7.5 -12q12 -25 36.5 -49.5t47.5 -40.5 q8 -4 17 -14.5t36 -26.5q20 -8 40.5 -14.5t39.5 -10.5q10 0 29.5 -3t72.5 -3q29 0 57.5 12t59.5 25q2 0 2 2l2 4q2 0 2 1t2 1q4 4 9 11t14 14q0 2 7 11t7 13q4 6 4 15.5t2 15.5q4 23 10.5 37t30.5 20q16 8 40 3t34 -9z" />
<glyph unicode="L" horiz-adv-x="536" d="M1540 -160l14.5 14.5t26.5 10.5q8 4 23.5 -2t21.5 -15q16 -29 23.5 -48t-13.5 -42q-72 -78 -159.5 -129t-185 -73.5t-199 -15.5t-197.5 46q-86 31 -166 76t-168 70q-29 10 -53.5 15t-48.5 11q-12 2 -35 1t-48.5 -3t-49 -4t-37.5 -2q-4 0 -14.5 -1t-22.5 -1q-14 -2 -31 -2 h-2q-53 -4 -91 -16.5t-67 -18.5q-29 -4 -43 -6h-6q-14 2 -28.5 8t-14.5 17q-2 10 2 35.5t11 31.5q14 20 33.5 29.5t64.5 19.5q25 4 42 12.5t29.5 27t21.5 50t20 82.5q2 12 3 50t1 88.5v106.5t-1 106.5t-1 86.5v46q2 16 1 34.5t-1 32.5v35t2 33q0 2 -1 7t-1 16.5v33t2 56.5 q0 4 -1 7t1 7v28.5t-2 32.5q2 16 2 27.5v46.5v57q2 8 0 15.5t-2 17.5q2 12 0 20.5t-4.5 14.5t-4.5 14.5t0 22.5q0 10 16.5 15t35.5 5h57.5t38.5 -22q2 -6 2 -12.5t-4 -14.5q-6 -16 -6 -18t-2 -23v-82q0 -18 -1 -38.5t-1 -39.5q0 -8 -2.5 -48t-2.5 -95q0 -72 1 -153.5 t1 -157.5t-1 -138.5t-3 -95.5v-104v-37.5t-2 -34.5q0 -4 3 -11t3 -11q8 -23 36 -37t63 -23.5t69.5 -14.5t57.5 -11q78 -16 149.5 -50t136.5 -67q90 -45 197 -66.5t209 -1.5q92 18 167 57t136 109z" />
<glyph unicode="M" horiz-adv-x="1050" d="M1618 -217q20 -10 20 -33.5t-6 -52.5q-8 -39 -29.5 -75t-53 -64.5t-71.5 -50t-83 -29.5q-39 -8 -90 -8q-43 0 -89.5 9t-85.5 25q-16 6 -38 19q-6 2 -11.5 5t-13.5 7q-33 20 -61.5 46t-49.5 54q-23 29 -38 54.5t-27 52.5q-8 29 -16.5 61.5t-14.5 65.5q-6 39 -5 59.5 t1 36.5v31v2q0 14 1 53t2 77t1 66.5t0 26.5v19.5v29t1 28.5t1 19q4 16 3 33t-1 33q-2 18 0 36.5t4 37.5q0 4 1 8t-1 8q-2 10 -1 33.5t-1 32.5q0 4 -1 9t-1 11q2 29 0 62.5t-2 50.5q0 12 1 27.5t1 30.5t1 26.5t1 15.5q0 20 -7 26.5t-18.5 3.5t-22.5 -12.5t-17 -21.5 q-6 -10 -22.5 -26.5l-24.5 -24.5q0 -2 -4 -6q-8 -10 -33 -36t-33 -38q-10 -23 -26.5 -33t-24.5 -33q-2 -6 -21.5 -10t-44 -3t-47 7t-28.5 19q-6 12 -14.5 29.5t-31.5 39.5q-23 29 -48 56.5t-29 31.5q-35 27 -52.5 31t-26.5 -12.5t-12.5 -48t-9.5 -74.5q0 -2 -1 -14.5 t-2 -28.5t-1 -33.5v-28.5q4 -16 3 -33.5t-3 -35.5q-4 -25 -4 -50.5t-2 -52.5q-4 -33 -5 -64.5t-3 -64.5v-21v-32.5t1 -34t1 -24.5q4 -27 8 -52.5t-2 -50.5q-2 -8 -17.5 -14t-35 -9t-37.5 -4t-27 -1q-12 2 -21 13t-5 28q8 35 11 65.5t1 67.5q0 14 -1 32.5t-1 32.5q0 8 1 31 t3 49.5t3 49t1 30.5v16q-4 29 -2 59t6 58q2 10 0 22.5t0 24.5q2 16 3 32.5t3 33.5v20q0 35 -1 71t-1 71v19t2 20q4 20 0 32.5t-4 34.5q-2 29 -5 53.5t-25 42.5q-6 4 -17.5 16.5t-24 27t-22.5 26.5t-16 16q-10 8 -18.5 15.5t-8.5 25.5q0 10 5 26.5t15.5 31t25.5 23.5t38 5 q6 -4 13 -6t12 -6q10 -8 27.5 -25.5t34.5 -36t33.5 -36t26.5 -25.5q6 -4 10.5 -8t8.5 -8q16 -16 27.5 -31.5t29.5 -30.5q4 -4 15.5 -14t11.5 -14q8 -4 22.5 -19.5t29.5 -34t28.5 -35t19.5 -22.5q16 -14 24.5 -24.5t22.5 -26.5q6 -8 16.5 -14.5t16.5 -14.5q23 -27 49.5 -36 t61.5 20q0 2 1 3t1 3q6 6 12 13t12 16q8 14 11 14q12 10 9 8t5 10q10 12 51 57.5t88 104.5q2 -2 12.5 15.5t26.5 37.5q10 12 13 23.5t12 24.5q10 23 50 21.5t81 -21.5q12 -8 8 -23q-2 -10 -6 -22.5t-6 -16.5q-4 -8 -5.5 -24.5t1.5 -26.5q0 -2 -1.5 -23.5t-3.5 -48t-4 -52.5 t-2 -34q0 -6 -1 -13t-1 -15q-2 -12 -1 -24.5t-1 -23.5q0 -6 -2 -34.5t2 -42.5q-4 -14 -4 -72.5t1 -128.5t1 -132.5t-2 -84.5q2 -29 0 -55v-20.5t-1 -32t-2 -33t-1 -21.5q2 -10 2 -32.5v-45.5l-2 -26q4 -23 2 -47.5t2 -51.5q2 -12 8 -30.5t13 -34.5q8 -20 16 -43 q12 -27 33.5 -54.5t44.5 -44.5q8 -4 17 -14t36 -26q20 -8 40.5 -14.5t39.5 -10.5q10 0 29.5 -3t72.5 -3q29 0 57.5 12t59.5 25q2 0 2 2l2 4q2 0 2 1t2 1q4 4 9.5 11t13.5 13q0 2 7 11.5t7 13.5q4 6 4 15.5t2 15.5q4 23 10.5 37t30.5 20q16 8 40 3t34 -9z" />
<glyph unicode="N" d="M1190 1485q-53 4 -72.5 1t-30.5 -3q-18 -2 -39.5 -5t-41.5 -10q-27 -16 -36 -25t-20 -13q-23 -16 -45 -46t-37 -55q-10 -23 -18 -43q-8 -16 -14.5 -35.5t-8.5 -29.5q-4 -25 -3 -50.5t-5 -48.5l-2 -80q0 -6 -1 -13t-1 -11v-6v-15q0 -10 -1 -34.5t-3 -51t-2 -47v-22.5 q0 -14 1 -26.5t-1 -24.5v-9q-2 -35 -4 -67.5t-2 -67.5q2 -51 2 -101t2 -102q0 -10 -4 -26.5t-2 -26.5q6 -37 3 -71.5t-5 -73.5v-41q2 -43 3 -75t1 -75q0 -4 3 -16t5 -16q2 -16 -16.5 -23.5t-41 -9.5t-44 0t-23.5 4q-12 6 -15 14t-1 17.5t5 18.5t3 17q-2 6 -2 20.5t2 31t3 31 t1 20.5q-2 10 -3 32.5t-5 34.5q0 2 -3 12.5t-7.5 20.5t-8.5 19.5t-6 11.5q-16 16 -27.5 36.5t-27.5 37.5q-4 2 -16.5 16t-27.5 30.5t-27.5 31t-14.5 18.5q-10 10 -16.5 25.5t-16.5 25.5l-27 28q-28 27 -61 61t-61.5 64.5t-32.5 39.5q-12 14 -23.5 15t-20.5 -7t-15.5 -22.5 t-6.5 -26.5v-19.5t-1 -6.5t-1 -4v-13q-4 -53 -3 -98.5t1 -98.5v-51q4 -51 1 -105.5t-1 -105.5q4 -6 0 -10q-4 -29 -1 -47.5t7 -47.5q0 -12 4 -28q0 -4 1.5 -10.5t-1.5 -10.5q-2 -16 -26 -16q-33 -2 -60.5 -3t-37.5 1q-14 0 -23.5 3t-9.5 19q2 10 4 19.5t4 19.5q8 53 15 99.5 t7 99.5q0 23 1.5 44t3.5 44q0 20 -2.5 40.5t-2.5 41.5q2 29 -1 78t-1 88q-2 4 -1 10t1 10v19.5t0 -0.5t1 -1t1 19q2 35 2.5 68t4.5 67q2 35 -4.5 55.5t-2.5 55.5q0 41 -20 70q-14 23 -27.5 39t-29.5 38q-4 8 -17.5 19.5t-9.5 34.5q0 16 8 32.5t13 22.5q4 4 8 6t8 8 q10 8 31.5 10.5t31.5 -8.5q4 -4 12.5 -9t12.5 -9q25 -25 39 -41t25.5 -29.5t22.5 -27t30 -31.5q10 -10 18 -22.5t17 -22.5q25 -41 46 -71t46 -68l15 -22.5t17 -20.5q4 -6 26 -29t28 -33l18 -24q2 -2 9.5 -13.5t16.5 -26t17 -27.5t12 -20q2 -4 15.5 -17t29 -27.5t28.5 -28 t15 -15.5q12 -14 22.5 -13t19 9.5t13.5 19.5t5 17v15q2 4 4 16t3 25.5t1 25.5v19q4 41 3 79.5t1 85.5q-2 14 -1 28.5t1 29.5q0 23 1 56.5t1 55.5v39t2 49v20.5t2 39.5v36.5t9 59.5q6 31 15 63.5t19 61.5q14 27 30.5 51.5t39.5 53.5q23 27 52.5 51t62.5 45q8 2 14 5t12 5 q25 14 39 16q39 16 86 23.5t90 5.5q47 -2 88 -12q43 -10 82 -33t70 -53.5t51.5 -67.5t26.5 -76q4 -29 3 -52t-22 -34q-10 -2 -33.5 -6t-39.5 4q-25 8 -30 22.5t-9 37.5q-2 6 -1 15t-3 15q0 4 -7.5 13.5t-7.5 11.5q-8 6 -12 14.5t-8 12.5q-2 0 -2 1t-2 1q-2 2 -2 4l-2 2 q-31 14 -58.5 26.5t-56.5 14.5z" />
<glyph unicode="O" horiz-adv-x="944" d="M35 604q0 27 7 55.5t17.5 57t22.5 55.5t20 47q4 10 7.5 18.5t7.5 18.5l2 2q4 12 8 16q10 16 35 48q18 29 29.5 42t35.5 25l6 4q4 4 11.5 9.5t11.5 9.5q12 8 29.5 15t40.5 24q8 4 14 8t16 6q20 4 40 13t42 14q25 4 48.5 5t48.5 -5q31 -2 65 -21q10 -4 17.5 -9t15.5 -11 t24 -15q27 -16 50 -47q4 -4 8 -9t8 -9q4 -6 6 -9.5t4 -7.5l12 -12q4 -6 7.5 -11t7.5 -9q4 -2 5 -4.5t5 -6.5t7 -8t7 -10q0 -10 9 -14q12 -6 18 -31q4 -10 8 -21.5t8 -21.5q2 -4 3 -10.5t4 -10.5q0 -2 1 -3t1 -3q4 -4 2 -8q4 -12 4 -20q6 -16 9 -33t7 -33q0 -8 2 -14t2 -15 q4 -18 8 -36.5t4 -36.5q-2 -72 -9 -124t-16 -88t-17.5 -56.5t-14.5 -28.5q0 -4 -4 -6q-10 -25 -18.5 -48.5t-28.5 -44.5q-18 -16 -35.5 -33.5t-28.5 -39.5q-8 -4 -22 -17q-4 -4 -14.5 -12t-14.5 -12q-16 -18 -43.5 -28.5t-52.5 -23.5q-8 -4 -15.5 -7t-15.5 -3q-10 -4 -17 -3 t-18 -1q-4 -2 -7 -1t-7 1q-6 -2 -12 -2h-19q-10 0 -18 -1t-18 1q-35 -4 -64 2h-8q-78 16 -139 90q-4 4 -27 29t-35 39q-14 16 -27.5 32.5t-19.5 39.5q0 4 -1 8t1 8h-2v2q-4 10 -8 21.5t-8 21.5q-8 16 -14.5 33.5t-10.5 38.5q0 8 -1 24.5t-1 33.5v34.5v30.5v12q0 16 -2 45 t-4 45q-2 0 -2 2v4v4zM164 649q-6 -23 -6 -42v-40v-49q0 -10 1 -35.5t5 -54.5t8 -56.5t10 -39.5q4 -10 7.5 -13.5t5.5 -7.5t4 -6t6 -10q4 -4 4 -7t4 -7q8 -14 20.5 -35t23.5 -39.5t19.5 -31.5t10.5 -15q10 -14 20 -20.5t21 -10.5q6 -4 10 -8q12 -10 27 -12q16 -2 40.5 -4.5 t57.5 8.5q4 2 19.5 8t34 14t35.5 17.5t23 17.5q4 4 9.5 9t9.5 9q6 8 22 21q16 14 38 49t42.5 73t34.5 72.5t14 47.5q2 12 3.5 42.5t2.5 67.5t-1 71t-7 50v4q-10 41 -18 66.5t-16 42.5q-4 10 -15.5 27.5t-26 36t-27.5 35.5t-22 26q-10 10 -22 15t-27 11q-4 6 -8 6 q-4 4 -16.5 10.5t-30.5 10.5q-20 4 -49 -2q-4 0 -6 -2q-20 -6 -49 -13.5t-58 -27.5q-23 -16 -48 -32.5t-32 -31.5q0 -4 -4 -6q-8 -8 -13 -15t-9 -18q-2 -2 -2 -3t-2 -3l-2 -2v-2q-8 -8 -20.5 -34.5t-25 -54.5t-21.5 -51.5t-9 -25.5z" />
<glyph unicode="P" horiz-adv-x="819" d="M754 825q-8 -49 -18.5 -80.5t-22 -52t-19.5 -32t-14 -19.5q-4 -4 -8 -9t-8 -11q-12 -25 -32 -32t-40 -28q-20 -20 -44 -33.5t-45.5 -22.5t-39 -15.5t-23.5 -14.5q0 -2 -2 -2q-20 -14 -31.5 -21.5t-31.5 -17.5t-40 -19t-36 -26q-4 -4 -12 -4q-8 -2 -27.5 -24.5 t-32.5 -53.5q-2 -27 -3 -58.5t1 -35.5q2 -16 -1 -43t-3 -35q0 -14 1 -44t-1 -46q0 -4 5 -22.5t1 -26.5q-2 0 -2 -2q-2 -2 -2 -3t-2 -3q-6 -6 -25.5 -8.5t-42 -1t-41 3.5t-20.5 6q-4 6 -4 7v7q2 10 7 21.5t5 33.5q-2 20 0 46t2 42q10 78 7 172.5t2 212.5q0 23 2 89.5t0 150.5 q0 6 1 24.5t1 26.5q4 14 1 26.5t-1 29.5q6 35 -14.5 58t-61.5 21q-18 2 -25.5 14.5t-10.5 26t-2 24.5t1 13q0 18 10.5 27.5t22.5 14.5t24.5 6t16.5 1q10 0 18 -1t19 1q8 0 15 -2t15 0q4 2 18.5 2h30t30 -1t18.5 -1q31 2 61 0q10 4 23 2q10 -2 18 -2t18 -2h25h18.5h26.5 t25.5 -1t17.5 -1h23.5t23.5 -2q41 -10 83 -21.5t65 -27.5q35 -23 55 -62.5t31 -72.5q2 -2 2 -11.5v-20.5t-1 -21.5t-1 -12.5zM618 768q6 18 10.5 48t-1.5 50q-10 31 -22.5 50.5t-35.5 31.5q-6 4 -20 7t-27.5 5.5t-25 4.5t-13.5 2h-6q-23 0 -60.5 1t-60.5 -1q-20 0 -38.5 -1 t-38.5 -12q-10 -4 -20.5 -19t-14.5 -26q-4 -8 -6 -15t0 -26v-32.5v-53t-1 -56.5t-1 -44q2 -4 1 -6t-1 -6q-4 -10 -2 -18.5t-1 -18.5q-4 -25 -3 -45.5t11.5 -32.5t31 -15t55.5 9l12 6q10 2 24.5 9t29 14.5t23.5 13.5t11 6q33 20 57.5 27.5t51.5 38.5q25 29 47 47t34 57z" />
<glyph unicode="Q" horiz-adv-x="940" d="M1520 -209q20 -10 20 -33.5t-6 -52.5q-8 -39 -29.5 -75t-53.5 -64.5t-72 -50t-83 -29.5q-39 -8 -90 -8q-43 0 -89 9t-85 26q-16 6 -39 18q-6 2 -11 5t-13 7q-33 20 -61.5 46t-49.5 55q-20 25 -39.5 51t-36.5 55q-4 4 -18 29.5t-33.5 61.5t-42 78t-43.5 79 q-4 8 -17.5 22.5t-29.5 4.5q-29 -16 -53.5 -23.5t-52.5 -9.5h-7q-16 0 -32.5 2t-32.5 6q-18 6 -38 10l-40 8q-8 2 -16.5 3.5t-16.5 5.5t-15 8t-15 8q-23 16 -39.5 35.5t-30.5 42.5l-25 29l-18 20l-33 43l-24 33q-16 23 -23.5 45t-17.5 51q0 2 -1 3t-1 3q-4 10 -9.5 31.5 t-8.5 58.5t-1 89.5t12 123.5q4 18 10.5 36t12.5 34l12 29l25 61q8 25 21.5 46.5t27.5 45.5q8 16 24.5 31.5t35 31l37 31t30.5 27.5q25 25 57 37l25 12q18 8 37 14q37 10 67 11q49 0 97 -21q10 -4 21 -9t22 -11l32 -19q8 -4 13.5 -9t13.5 -11l10 -10h2l47 -41l21 -21l4 -6 l12 -12t17 -10l28 -56l25 -49q4 -4 4 -9t2 -9v-2q4 -10 6 -19.5t4 -19.5l4 -33q0 -25 5.5 -49.5t15.5 -53.5q0 -2 1 -14t2 -26.5t1 -27.5t-2 -20q0 -6 -2 -10q-4 -16 -10.5 -42.5t-10.5 -43.5q0 -2 -1 -5t-1 -7l-22 -123q-6 -16 -12.5 -28.5t-16.5 -28.5q-6 -8 -20.5 -28.5 t-27.5 -44.5t-22.5 -46.5t-3.5 -32.5q6 -12 10.5 -22.5t12.5 -22.5q0 -2 17.5 -32.5t40 -72.5t46 -84t35.5 -67l2 -2l15 -25q12 -25 36.5 -49t46.5 -41q8 -4 17.5 -14t36.5 -27q20 -8 40.5 -16t39.5 -12q10 0 29.5 -1t72.5 -1q29 0 57.5 19.5t59.5 31.5q2 0 2 2l2 4q2 0 2 1 t2 1q4 4 9 11t13 14q0 2 7.5 11t7.5 13q4 6 4 15.5t2 15.5q4 23 10 37t31 20q16 8 40 3t34 -9zM322 279q8 2 8 4t10 2q8 2 14 2h11l24 6q12 2 23.5 4t15.5 2t7 1t7 1t6.5 -1t6.5 -1q8 0 19 -2t24 -6q31 -6 53 -20.5t42.5 -27t37 -16.5t35.5 15l28 32q6 4 15 17q8 12 16 36.5 t15.5 52.5t12.5 51.5t5 33.5l8 49q4 20 7 39.5t1 40.5q0 92 -44 178t-95 137q-18 16 -44 32.5t-54.5 27t-57 12.5t-53.5 -10q-2 0 -3 -1t-5 -1q-14 -6 -27.5 -12.5t-25.5 -16.5q-10 -6 -24.5 -19.5t-30 -28.5t-29 -29.5t-19.5 -22.5q-10 -12 -22.5 -38t-28.5 -63q0 -4 -2 -4 q-6 -16 -13.5 -49t-13.5 -68.5t-10 -66.5t-4 -43q0 -16 4 -46t12.5 -59.5t21.5 -55t32 -34.5q4 -4 6 -4q6 -10 22.5 -21.5t36.5 -11.5q4 0 9.5 1.5t9.5 1.5zM532 104q29 10 20 24.5t-28 31.5q-16 10 -37.5 16t-42.5 8h-2q-10 -2 -19 -3t-24 -5q-41 -20 -41 -35 q0 -10 8.5 -14t18.5 -8q8 0 15.5 -3t15.5 -7t17 -4.5t18 -4.5q20 -8 41 -8q14 0 26 8z" />
<glyph unicode="R" horiz-adv-x="780" d="M1505 -244q20 -10 20.5 -33.5t-5.5 -52.5q-8 -39 -30 -74.5t-53.5 -64.5t-71.5 -50.5t-83 -29.5q-39 -8 -90 -8q-43 0 -89 9t-85 26q-16 6 -39 18q-6 2 -11 5t-14 7q-33 20 -61.5 46t-48.5 55q-20 25 -40 51.5t-36 54.5q-4 6 -23.5 41t-45 83t-54.5 101.5t-51 96.5 q-8 10 -13.5 21.5t-11.5 21.5q-2 4 -3 10t-5 12l-8 19l-2 2q0 4 -4 12q-4 6 -8 15q-2 4 -4.5 7t-4.5 7q-12 18 -18 38.5t-18 39.5v4q-2 2 -9.5 19.5t-17.5 39.5q-10 25 -25 55l-7 14q-7 15 -15 33.5t-16.5 35t-10.5 20.5q-16 27 -40.5 26.5t-47 -13.5t-38 -35.5t-13.5 -43.5 q-2 -25 -3 -57.5t1 -36.5v-30.5t-1 -48t-2 -46t-1 -24.5q0 -16 1 -45t-1 -46q0 -4 5 -22t1 -27q-2 0 -2 -2q-2 -2 -2 -3t-2 -3q-6 -6 -28.5 -8t-47.5 -1t-45.5 3t-22.5 6q-4 6 -4 7v7q2 10 7.5 21.5t5.5 34.5q-4 20 5 44.5t9 43.5q-2 2 -2 17.5v31.5t1 32.5t1 22.5q0 8 1 38 t3 66t3 71.5t-1 54.5q-2 12 0 24.5t2 24.5q2 25 1 49.5t1 48.5q2 25 2 48.5v45.5q0 31 -1 47.5t-1 44.5q-2 31 -2 55.5t-4 43t-17.5 29t-39.5 10.5q-47 -2 -59.5 25.5t-2.5 58.5q6 20 18.5 30.5t25 13.5t23.5 2t15 -1h34.5t35 -1t41 -2t55.5 -1q8 0 30.5 1t47 2t46.5 1 t26 -4h21t22 -2h24.5t24.5 -2q20 -4 41.5 -13.5t41 -21t32 -19.5t14.5 -8q31 -23 47 -56.5t35 -68.5q4 -4 4 -9t4 -9q0 -4 -2 -21.5t-6 -40t-9.5 -43t-11.5 -28.5q-10 -12 -14 -23q-12 -23 -27.5 -40t-36.5 -40q-18 -16 -37.5 -31.5t-37.5 -23.5q-23 -23 -32 -38t-5 -54 q2 -12 4 -17.5t5 -10.5l6 -10t7 -18q4 -6 8.5 -12t8.5 -14q14 -25 19 -45.5t20 -46.5q10 -14 15 -30.5t13 -29.5q10 -16 16.5 -28.5t14.5 -28.5q2 -8 7 -14.5t7 -12.5q4 -8 13.5 -22.5t13.5 -30.5q6 -12 12 -23.5t8 -15.5q4 -6 13 -26q8 -10 12 -22.5t10 -23.5q4 -4 4 -8 q8 -14 26.5 -43.5t40 -64.5t41 -69t30.5 -54l2 -2l18 -29q12 -25 38 -54.5t48 -45.5q8 -4 20.5 -18.5t38.5 -30.5q20 -8 41 -14.5t39 -10.5q10 0 29.5 -3t73.5 -3q29 0 56.5 17.5t57.5 29.5q2 0 2 2l2 4q2 0 2.5 1t2.5 1q4 4 9 11.5t13 13.5q0 2 7 11t7 13q4 6 4.5 15.5 t2.5 15.5q4 23 10 37t31 20q16 8 39.5 3t33.5 -9zM432 662q45 25 83 53t58.5 61t16.5 74t-43 90q-14 12 -29 23q-12 6 -32.5 9t-24.5 5h-6q-23 0 -45.5 3t-47.5 1q-20 0 -28 -1t-31 -9q-10 -4 -21.5 -20.5t-15.5 -26.5q-2 -8 -4 -22.5t0 -31.5q2 -16 3 -51t-1 -69 q2 -4 1 -6.5t-1 -6.5q0 -6 -1 -25.5t-2 -38t-1 -28.5t2 2q4 -27 16.5 -34t26.5 -6t25.5 7.5t15.5 8.5q10 2 24.5 8t27 12t22.5 12.5t12 6.5z" />
<glyph unicode="S" horiz-adv-x="1038" d="M1024 137q8 -59 4 -116.5t-20 -116.5t-45 -106.5t-68 -92.5q-20 -23 -45 -41t-47 -39q-6 -6 -22.5 -13t-37 -15.5t-40 -14.5t-31.5 -10q-61 -23 -131 -18q-16 0 -29.5 -2.5t-30.5 -0.5q-23 4 -43 3.5t-41 3.5q-33 10 -65.5 19t-63.5 26q-55 27 -100 68.5t-80 90.5 q-37 53 -57.5 115t-26.5 127q-6 72 8 133q6 31 19.5 60.5t27.5 58.5q4 10 7.5 18.5t9.5 16.5q2 2 10 13t17.5 22.5t16.5 21.5l7 10q39 37 88 66q23 14 37 19.5t37 15.5q25 10 40 11t42 3q61 2 123 -12q29 -8 51 -18.5t45 -28.5q25 -18 47 -41t35 -49q16 -29 23 -55.5 t5 -59.5q-2 -29 -12 -58.5t-26.5 -55t-40 -42t-54.5 -18.5q-27 0 -45 19.5t-20 41.5q0 25 20.5 35t36.5 27q23 25 21 50t-9 42q-20 55 -77 82q-16 6 -32 9t-32 7q-39 2 -78 0q-27 -4 -47 -12q-47 -23 -82 -57q-12 -10 -21 -22.5t-18 -25.5q-12 -16 -20 -38.5t-19 -42.5 q-12 -31 -18 -66q-4 -23 -3 -44.5t3 -43.5q8 -49 29 -102q8 -16 15 -31t17 -31q4 -4 5.5 -7t5.5 -7t4 -6q6 -8 12 -15.5t12 -13.5l14.5 -14.5t14.5 -12.5q8 -8 12 -10q4 -4 8 -6q14 -10 27.5 -18.5t30.5 -14.5q16 -6 33.5 -11t33.5 -11q18 -4 38 -5.5t38 -5.5q18 -2 36.5 0 t37.5 2q8 0 26.5 2.5t38 7.5t37 9t23.5 8q16 4 28.5 10t28.5 13q8 4 24.5 17t33.5 32q16 14 30 30q4 8 9.5 14.5t13.5 16.5q10 16 18 33.5t17 36.5q18 39 24 84q4 33 4 61.5t-4 61.5q-4 27 -11 51t-18 51q-29 68 -75 129q-6 8 -24.5 28.5t-22.5 24.5q-8 8 -26.5 25.5l-37 35 t-35 33t-20.5 19.5q-4 6 -16.5 18.5t-27 24.5t-27.5 22.5t-19 14.5q-2 0 -12.5 10t-22.5 22.5t-25.5 24.5t-21.5 19q-16 14 -37 40.5t-23 30.5q-4 6 -11 20.5t-13 31t-10.5 31t-4.5 18.5q-4 8 -4 12t-2 16v13q0 37 8.5 64.5t18.5 47t20.5 31.5t14.5 16q23 27 51.5 41.5 t54 18.5t45 4h25.5q23 -4 38 -5t38 -10q10 -4 24.5 -13t27.5 -22.5t25.5 -26.5t16.5 -24q0 -4 4 -12l4 -18q8 -33 4 -73t-14 -56q-4 -8 -10.5 -12.5t-12.5 -8.5q-10 -6 -27.5 -10t-33.5 2q-29 8 -29 37q-2 23 2 38t8 27q2 4 0 12.5t-2 12.5l-6 8t-18 18.5t-29.5 16.5 t-42.5 4q-4 0 -11 -1t-11 -3q-14 -6 -41 -31q-6 -6 -16.5 -23.5t-6.5 -62.5q4 -27 21.5 -54.5t21.5 -31.5q8 -12 26.5 -31.5t39 -39t37 -35t22.5 -17.5q8 -8 25.5 -22t35 -29.5t34 -30t24.5 -22.5q2 -2 4 -3t4 -5q4 -2 12 -10l6 -7l25 -24q25 -23 43 -42.5t37 -47.5 q16 -23 27.5 -36t25.5 -36q16 -23 27.5 -46.5t21.5 -47.5q10 -27 17.5 -54.5t11.5 -56.5z" />
<glyph unicode="T" horiz-adv-x="493" d="M2257 1405l-23.5 23.5t-19.5 15.5q-27 16 -52.5 31.5t-52.5 27.5q2 -2 7 -2q2 0 2 -2q-49 23 -97.5 31t-99.5 22q2 -2 6 -2h2q-45 0 -88 5.5t-88 5.5q-72 0 -144.5 -5.5t-144.5 -13.5q-31 -4 -64.5 -9t-58.5 -5q-145 -20 -289.5 -43t-287.5 -43q-57 -12 -144.5 -20.5 t-177.5 -32.5q-16 -4 -37.5 -11.5t-41 -21t-33 -36t-13.5 -58.5v-117v-139.5v-143v-130t1 -99.5t1 -49v-39q0 -49 -5 -119t-5 -162v-6v-31q0 -4 -1 -9t-1 -9q0 -16 3 -32.5t3 -33.5q0 -10 -1 -19t-1 -20q0 -41 8.5 -50t8.5 -19q0 -16 -28 -24.5t-71 -8.5q-27 0 -47 5t-20 18 v4q10 35 12 70.5t2 68.5q8 59 8 132t4 140q0 10 -1 19.5t-1 19.5q2 10 3 29.5t2.5 39t2.5 36t1 22.5q0 4 -1 49t-1 97.5t-1.5 97.5t-1.5 49q0 18 -1 35.5t-1 36.5q0 16 1 31.5t2.5 39t2.5 57.5t1 89q0 63 -14.5 95t-59.5 42q-41 10 -80 13t-80 3q-55 0 -110.5 -3t-108.5 -3 q-100 0 -202.5 13.5t-200 45t-183.5 85t-153 133.5q-16 23 -17 45q0 25 17.5 42t44.5 17q14 0 30.5 -11t35 -27.5t37 -36t34.5 -33.5h-2l-4 4q4 -4 8 -6l19 -14q18 -13 42.5 -27.5t46 -26.5t25.5 -8q20 -6 50 -17.5t64 -20.5t66.5 -16.5t59.5 -7.5q47 -6 90 -8t88 -2 q129 0 258 10.5t258 24.5q33 4 66.5 10t66.5 6q147 25 291 43q47 6 99 16.5t97 10.5q106 14 214 32.5t215.5 35t215 26.5t216.5 10q127 0 255 -19t238 -83q31 -18 68 -47t68.5 -63.5t54 -71.5t22.5 -72q0 -20 -14 -40.5t-45 -20.5q-25 0 -37 11t-22.5 30.5t-24.5 44 t-41 53.5z" />
<glyph unicode="U" horiz-adv-x="808" d="M1423 1391q4 -29 3 -52.5t-21 -33.5q-10 -2 -33.5 -6.5t-40.5 4.5q-25 8 -30 22t-9 37q-2 6 -1 15t-3 16q0 4 -7 13t-7 11q-8 6 -12.5 14.5t-8.5 12.5q-2 0 -2 1t-2 1q-2 2 -2 4l-2 2q-31 14 -58.5 26.5t-56.5 14.5q-53 4 -72.5 1t-29.5 -3q-18 -2 -39.5 -5t-42.5 -9 q-27 -16 -36 -25.5t-19 -13.5q-23 -16 -45.5 -46t-36.5 -55q-10 -23 -18 -43q-8 -16 -14.5 -35.5t-8.5 -29.5q-4 -25 -3 -50.5t-5 -48.5l-2 -79q0 -6 -1 -13.5t-1 -11.5v-20v-2q4 -16 4 -27q0 -4 1 -15.5t2 -25.5t1 -27.5v-21.5q2 -23 2 -43.5v-40.5q0 -12 -2 -37t-5 -50.5 t-4 -48t3 -32.5q2 -16 1 -32.5t-3 -33.5q0 -16 -2 -30.5t-2 -30.5q0 -20 2 -41t2 -41v-27q-8 -57 -21.5 -120.5t-42.5 -114.5q-4 -4 -8 -14.5t-8 -14.5q-33 -39 -77 -71.5t-107 -57.5q-4 -2 -8.5 -2t-8.5 -4q-45 -6 -79 -2t-74 20q-53 23 -86 51.5t-50 43.5q-10 6 -16 16 t-10 21q-6 14 -16.5 26t-16.5 29q-4 6 -5 12t-5 14q-14 41 -31.5 105.5t-19.5 122.5q-2 27 -2.5 76t2.5 75v40t-5 38q-4 29 -1 55.5t6 55.5q4 12 2 26.5t-2 28.5v129v8t2 8q0 31 -8.5 38t-8.5 24q4 18 19 26q2 2 23.5 2.5t47 0.5t46 -2.5t22.5 -4.5q8 -6 6 -12t-2 -14 q0 -4 -6 -28.5t-6 -29.5q-2 -12 -2 -23t-2 -24q4 -55 -3.5 -119.5t-3.5 -121.5q-6 -45 -4 -82q2 -27 3 -54.5t-3 -56.5q2 -25 8.5 -63.5t13.5 -75.5t14 -66.5t14 -38.5q0 -2 6 -14t14 -26.5t17.5 -30t17.5 -23.5q57 -53 133 -50t131 58q33 35 49.5 89.5t22.5 115t5 117.5 t-1 96q2 2 3 39t1 82v86v51v30v48.5v45t-2 20.5v38.5t2 49.5v20t2 39v36.5t8 59.5q6 31 15.5 64t19.5 61q14 27 30.5 51.5t39.5 53.5q23 27 52 51t62 45q8 2 14.5 5t12.5 5q25 14 39 17q39 16 86 23t90 5q47 -2 88 -12q43 -10 82 -32.5t69.5 -53.5t51 -67.5t26.5 -75.5z" />
<glyph unicode="V" horiz-adv-x="854" d="M803 1087q10 -4 18 -8t4 -20q-2 -10 -4 -14.5t-6 -8.5l-8 -8q-10 -14 -19 -33v-2q-8 -25 -8 -22q-2 -4 -6 -15.5t-9 -27t-9 -30.5t-6 -24q-2 -6 -11.5 -50t-21.5 -96t-23.5 -101t-15.5 -66q0 -4 -4 -12l-2 -2q-2 -4 -2 -7t-2 -8l-6 -18v-2q-2 -4 -3 -16h-2v-2 q-4 -10 -7 -22.5t-7 -25.5q-2 -4 -2 -7t-2 -7q-2 -8 -8 -32.5t-13.5 -58.5t-16.5 -73t-17 -73q-4 -10 -6.5 -17.5t-2.5 -11.5q0 -6 -4 -19q-4 -10 -6 -20t-2 -18q-2 -20 -2 -35t2 -19q8 -18 2 -26.5t-10 -12.5q-10 -6 -25 -6q-12 0 -26.5 2t-30.5 6h-39q-14 -2 -31.5 -2 h-33.5q-23 -6 -39 -6q-18 0 -25 6q-6 4 -12 16.5t2 30.5q2 4 1 16.5t-3 16.5q-6 20 -10 49q-4 16 -4 21q-2 4 -3.5 11t-5.5 18l-5 20t-9 38t-16.5 67.5t-24.5 111.5q-2 4 -2 7t-2 7q-4 12 -8 31t-21 70q-2 0 -2 4q-4 4 -4 10q-4 16 -15 65.5t-23.5 101.5t-23 96t-10.5 50 q-2 8 -6 23.5t-9 31t-9 28t-6 14.5q0 2 -2 2q0 8 -11 39q-2 0 -2 4q0 2 -2 4q-8 16 -14 45q-8 37 -18.5 57.5t-28.5 57.5l-2 4q-4 6 -6 13t-6 13q-2 2 -7.5 12.5t-9.5 20.5l-7 17.5t-1 1.5q-14 25 -36.5 54.5t-45.5 45.5q-10 4 -19.5 13t-35.5 26q-20 6 -42 9t-40 5 q-10 0 -29.5 3t-73.5 -1q-29 -2 -56.5 -14t-57.5 -27l-2 -2q0 -2 -1 -2t-1 -2q-2 0 -2 -1t-2 -1q-4 -4 -8.5 -12t-12.5 -15q0 -2 -7 -11t-7 -13q-4 -6 -3 -15.5t-1 -15.5q-4 -23 -9.5 -37t-29.5 -22q-16 -8 -40 -4t-34 6q-20 10 -21.5 33.5t3.5 52.5q6 39 26.5 75.5t51 67.5 t69.5 53.5t82 32.5q41 10 88 12q43 2 90 -5t86 -23q14 -2 39 -17q6 -2 12.5 -5t14.5 -5q33 -20 62.5 -44.5t51.5 -51.5q23 -29 39.5 -53.5t30.5 -51.5q4 -8 6 -17t6 -19q14 -25 27.5 -51.5t24.5 -53.5q14 -37 17 -57.5t7 -36.5q4 -20 4 -27q0 -2 4 -15t8 -19q2 -8 3.5 -15.5 t3.5 -11.5q0 -2 2 -10q2 -6 3 -15.5t3 -19.5q2 -4 12 -42t21.5 -83t20.5 -83t9 -40t1 -3t1 -5q2 -4 2 -7t2 -7q6 -23 12.5 -46.5t14.5 -46.5q0 -4 4 -16q4 -8 6 -15.5t2 -17.5q0 -6 2 -13t7.5 -24.5t13.5 -50.5t22 -88v-2q0 -4 2 -11t5 -18q12 -47 17 -58t7 -19 q10 -39 35 -44.5t41 29.5q4 12 8 32.5t14 59.5q4 10 5.5 18.5t3.5 12.5l2 2q4 8 16 54t31 120q0 6 1 11.5t3 11.5v10q0 6 10 46t22.5 88t23.5 89t16 49v6q0 12 6 23q2 2 2 6q4 10 8 27q2 6 4 13t4 13q2 4 5 23.5t5 30.5q2 8 2 10q2 4 5.5 21.5t3.5 21.5v12q2 4 2 10 q-2 6 -2 20.5t10 22.5l2 2q4 4 12 5q4 2 17.5 2h29.5q41 0 54 -4q4 0 6 -1.5t6 -1.5z" />
<glyph unicode="W" horiz-adv-x="1218" d="M1174 1071q10 -4 18 -8t4 -21q-2 -10 -4 -14t-6 -8l-6 -8q-12 -12 -19 -31l-2 -2l-8 -23q-2 -2 -6 -14t-9.5 -27.5t-9.5 -31t-6 -23.5q0 -6 -9 -49t-19.5 -95t-21.5 -100.5t-15 -64.5q0 -6 -4 -10v-4q0 -2 2 -5l-6 -14q-12 -41 -13.5 -59.5t-5.5 -30.5q0 -6 -4 -14 q-16 -70 -26.5 -112t-16.5 -66.5t-10 -36t-6 -19.5q-6 -23 -7 -28q-4 -8 -4 -21l-12 -49q-2 -4 -2 -16.5v-16.5q8 -18 2 -30.5t-12 -16.5q-6 -6 -23 -6q-20 0 -41 6h-21t-20 2h-39q-16 -4 -30.5 -6t-24.5 -2q-18 0 -26 6q-4 4 -9.5 12.5t2.5 26.5v18.5t-2 34.5q0 8 -2 18.5 t-6 20.5q0 6 -4 19q0 4 -2 11t-6 17q-4 8 -5 15.5t-3 11.5q-2 6 -4 8q-10 29 -22.5 32t-24 -8.5t-21.5 -28.5t-12 -30q-2 -10 -4 -17t-2 -11q-4 -8 -5 -21l-12 -49q-2 -4 -2 -16.5v-16.5q8 -18 2 -30.5t-12 -16.5q-6 -6 -25 -6q-8 0 -18 -2t-21 2h-33.5t-31.5 2h-39 q-16 -4 -30.5 -6t-26.5 -2q-16 0 -25 6q-4 4 -10 12t4 27v18.5t-2 34.5q0 8 -2 21.5t-6 23.5l-4 19q0 4 -2.5 11t-6.5 17l-55 238q0 6 -4 14l-29 100l-2 3q-4 8 -4 12l-72 313q0 4 -5 21.5t-10 37t-10 35t-5 19.5q0 2 -1 3t-1 3v4q-2 2 -2 4q0 4 -4 8q-2 0 -3 4v5 q-8 16 -14 45q-8 37 -18.5 57t-28.5 57l-2 4l-12 27q-2 2 -7.5 12.5t-9.5 20.5t-7 17t-1 1q-14 25 -36.5 54.5t-45.5 46.5q-10 4 -22.5 11t-38.5 23q-20 6 -42 11.5t-40 7.5q-10 0 -29.5 3t-73.5 -1q-29 -2 -56.5 -14.5t-57.5 -26.5l-2 -2q0 -2 -1 -2t-1 -2q-2 0 -2 -1 t-2 -1q-4 -4 -8.5 -12.5t-12.5 -14.5q0 -2 -7 -11t-7 -14q-4 -6 -3 -15t-1 -15q-4 -23 -9.5 -39.5t-29.5 -24.5q-16 -8 -40 -4t-34 6q-20 10 -21.5 34t3.5 52q6 39 26.5 76t51 67.5t69.5 53t82 33.5q41 10 88 12q43 2 90 -5t86 -24q14 -2 39 -16q6 -2 12.5 -5t14.5 -5 q33 -20 62.5 -45t51.5 -52q23 -29 39.5 -53t30.5 -51q4 -8 6 -17.5t6 -19.5q14 -25 27.5 -51.5t24.5 -52.5q10 -23 13 -39.5t7 -30.5q0 -4 4 -12q2 -6 2 -13.5t2 -13.5q0 -4 2 -8l4 -8l4 -8q0 -4 3.5 -21.5t5.5 -21.5q0 -2 2 -11q2 -10 5 -29.5t5 -23.5q4 -6 5 -13t3 -14 q4 -16 8 -26q0 -2 1 -3t1 -3q6 -10 6 -23v-6q31 -117 47.5 -184.5t27.5 -113.5t21.5 -85t28.5 -96l15 -58l-6.5 19.5t0.5 5.5q6 -35 19 -61.5t28.5 -37t30 -3t20.5 42.5q0 4 2 5t5 5t7 14t10 35q2 10 6.5 17.5t4.5 11.5v2l2 2q4 8 20.5 45t22.5 78v2q2 6 5 19t5 26.5t3 25 t1 13.5q6 20 -1 70.5t-17.5 103.5t-20.5 96t-10 49q-2 8 -6 23.5t-9.5 31t-9.5 26.5t-6 15q0 -2 -8 23v2q-10 25 -18 33l-7 8q-4 4 -7 8t-5 14q-4 16 5.5 20.5t17.5 8.5q4 0 6 1t6 1q6 2 18.5 3t34.5 1h29.5t17.5 -2q10 0 13 -4q2 0 2 -1t2 -1q10 -8 10 -22.5t-2 -20.5 q-2 -4 -1 -5t1 -5v-12q0 -4 3 -21.5t5 -21.5q0 -2 2 -11q2 -10 5 -29.5t5 -23.5q4 -6 5.5 -13t3.5 -14q4 -16 8 -26q0 -2 1 -3t1 -3q6 -10 6 -23v-6q2 -8 14.5 -49t24.5 -89t22.5 -88t10.5 -46v-11l6 -22q16 -74 28.5 -120t16.5 -54l2 -2v-2l8 -29q10 -39 13 -51t6 -25 q14 -23 27 -22.5t24.5 13.5t19.5 36.5t15 48.5q6 18 6 29l2 2v2q12 55 20 87t13.5 49t7.5 23.5t2 12.5q0 10 2 17t6 16q4 12 4 16q8 23 11 47.5t10 46.5q4 8 4 15q2 4 2 8q0 2 8 40t17 83t17.5 82.5t10.5 42.5q6 18 6 34q2 8 2 11q2 4 4 20t2 23q0 4 1 6t1 4q2 4 2 10 q-2 6 -2 20.5t11 22.5l2 2q4 4 6 4t6 2h49q45 0 51 -2l2 -2q2 0 4.5 -1t6.5 -1z" />
<glyph unicode="X" horiz-adv-x="782" d="M760 20q6 -6 2 -14t-12.5 -9t-20.5 -3q-8 0 -20 -4h-68q-16 0 -23.5 -2t-17.5 2t-12 18.5t-2 24.5v2q-2 6 -2 12t-2 12q-4 4 -11.5 20.5t-11.5 22.5q-2 2 -6 11q-4 10 -12.5 28.5t-10.5 22.5q-10 12 -17 24.5t-13 26.5q-4 4 -6 8q-8 12 -11 21q-4 14 -11 26.5t-15 24.5 q-4 6 -7.5 13t-7.5 16q-12 14 -21 31.5t-18.5 23.5t-20.5 -4t-30 -47q-4 -10 -8 -16.5t-8 -12.5q-8 -14 -14.5 -25.5t-10.5 -23.5q-2 -10 -12 -25q-2 0 -4 -6q-4 -6 -7 -11t-7 -13q-4 -6 -7.5 -12.5t-9.5 -14.5q-4 -4 -12 -22.5t-12 -28.5q-4 -8 -4 -11q-4 -4 -12.5 -22 t-8.5 -23q-6 -10 -6 -22v-2q0 -10 -2 -23.5t-12 -19.5q-6 -2 -15 -2h-8q-2 2 -8 2h-10h-15q-6 -2 -18 -2q-6 0 -16.5 1t-18.5 1q-6 2 -11 2t-12 2q-10 4 -18 5t-12 7t0 17q4 8 13 20t20 23q12 16 14 18q0 2 2 2l10 17.5t4 5.5t12.5 18t22.5 37.5t24.5 41t16.5 30.5 q2 4 10 21.5t20.5 42t27 54t30.5 60.5q20 37 28.5 83t-1.5 89v2q-16 33 -29 59q-10 23 -19.5 44.5t-13.5 25.5q-2 4 -6 10q-4 4 -7 10.5t-7 10.5q-29 55 -40 78.5t-15 31.5q0 4 -9 21q-4 14 -11 30.5t-15 32.5q-8 14 -13.5 24.5t-5.5 12.5q-4 6 -6 12t-6 13q-8 10 -11 21 t-12 24q0 2 -17 32.5t-39.5 72.5t-46.5 84t-36 67l-2 2l-22 24q-12 25 -33 49.5t-43 40.5q-8 4 -17.5 14.5t-35.5 26.5q-20 8 -41 14.5t-39 10.5q-10 0 -29.5 3t-73.5 3q-29 0 -61.5 -12t-63.5 -25l-2 -2q0 -2 -1 -2t-1 -2q-2 0 -2 -1t-2 -1q-4 -4 -9 -11t-13 -14 q0 -2 -7.5 -11t-7.5 -13q-4 -6 -4 -15.5t-2 -15.5q-4 -23 -10 -37t-31 -20q-16 -8 -39.5 -3t-34.5 9q-20 10 -20 33.5t6 52.5q8 39 29.5 74t53.5 64.5t72 50t83 30.5q39 8 90 8q43 0 89 -9t85 -26q16 -6 39 -18q6 -2 11 -5t13 -7q33 -20 62 -46t49 -55q20 -25 39.5 -51 t36.5 -55q4 -6 20.5 -36t40 -72t49 -91t48 -92t38 -72.5t17.5 -35.5q0 -2 4 -7q10 -23 17 -38t12 -27q18 -31 34 -70q27 -51 52.5 -91t35.5 -40q6 0 15.5 13.5t21 34t22.5 44t21 43.5q10 25 21.5 46.5t21.5 37.5l10.5 17.5t6.5 9.5l10 20q6 14 14 31t13 27q4 4 8 16t6 17 q-4 23 4 29.5t12 8.5q10 4 32 5.5t32 1.5q55 0 65.5 -7.5t10.5 -11.5v-2q2 -8 -3 -14l-2 -2q-8 -14 -16 -21q-4 -4 -9 -10t-16 -25q-6 -16 -22 -51t-27 -61q-4 -8 -6 -12.5t-4 -8.5q-2 -6 -14.5 -31.5t-40.5 -78.5q-4 -10 -9.5 -17.5t-7.5 -11.5v-2h-2q-6 -8 -27.5 -48 t-37.5 -81l-2 -2q-16 -41 -7 -82t25 -76q16 -31 33.5 -64.5t32 -62t25 -49t12.5 -24.5q4 -10 16 -30t24.5 -41.5t22.5 -37.5t12 -18q4 -4 7.5 -9.5t7.5 -13.5q4 -4 7 -10t7 -10q10 -10 19.5 -23t13.5 -23z" />
<glyph unicode="Y" d="M817 1065q2 -10 -2 -16h-2q-2 0 -2 -2q-8 -14 -14 -19q-4 -4 -9.5 -10t-15.5 -25q-10 -16 -25.5 -49t-25.5 -61l-7 -10.5t-5 -8.5q0 -4 -15.5 -34.5t-36 -71.5t-43 -83t-36.5 -69q-4 -10 -9.5 -16t-7.5 -10v-2h-2q-29 -37 -42 -77t-23 -89q0 -37 -2.5 -73t-4.5 -65.5 t-4 -50t-2 -26.5q-2 -18 0 -47t6 -35v-6.5t5 -20.5v-2q2 -18 10 -35q4 -8 4 -10q4 -6 5 -10t1 -15q0 -16 -11.5 -20t-33.5 -4h-10t-17 -2q-16 -2 -31.5 -3t-29.5 -1t-17 2q-8 2 -11 5l-7 7q-8 8 -3 21.5t9 21.5v4q8 12 8 23q2 4 3 21.5t-1 25.5l2 10q0 10 2.5 31.5t0.5 25.5 v31v13.5t-3 13.5v6q-2 6 -3 21.5t1 21.5q4 14 4.5 27.5t0.5 27.5q0 8 -1.5 15.5t-1.5 17.5q0 8 1.5 6t1.5 -7v-8t0 7v16q-4 10 -5.5 18.5t-5.5 16.5q-4 23 -12 48.5t-20 43.5q0 6 -3 8v2q-23 53 -43 95q-16 35 -33.5 66.5t-21.5 37.5q-2 4 -4 10t-8 17q-29 55 -42 77.5 t-17 28.5q0 8 -9 21q-2 14 -17 46t-36.5 71.5t-45.5 82.5t-43 78t-32.5 58.5t-13.5 25.5l-2 2l-23 25q-12 25 -32.5 49.5t-42.5 40.5q-8 4 -17.5 14t-36.5 27q-20 8 -40.5 14t-39.5 10q-10 0 -29.5 3.5t-72.5 3.5q-29 0 -61.5 -12.5t-63.5 -24.5l-2 -2q0 -2 -1 -2t-1 -2 q-2 0 -2 -1t-2 -1q-4 -4 -9 -11.5t-14 -13.5q0 -2 -7 -11.5t-7 -13.5q-4 -6 -4 -15t-2 -15q-4 -23 -10 -37.5t-31 -20.5q-16 -8 -40 -3t-34 9q-20 10 -20 34t6 52q8 39 29.5 74t53.5 64.5t71.5 50t82.5 31.5q39 8 91 8q43 0 89 -9.5t85 -25.5q16 -6 39 -18q6 -2 11 -5.5 t13 -7.5q33 -20 61.5 -45.5t49.5 -54.5q20 -25 39.5 -51.5t35.5 -55.5q2 -4 27 -48t55.5 -101t60.5 -113.5t40 -83.5l10 -20l6 -16q6 -15 13.5 -34.5t15.5 -37t12 -23.5q10 -16 18.5 -37.5t18.5 -38.5l2 -6q27 -51 48.5 -90t31.5 -39q6 0 17.5 13.5t23.5 33t25.5 43 t23.5 43.5l2 7q4 8 15.5 30.5t22.5 47t22.5 47t15.5 30.5q8 20 14 27q2 4 4 9t6 9q8 16 16.5 31.5t14.5 24.5q4 4 7 17t5 17q-4 23 5.5 29t13.5 8q10 4 31.5 5t31.5 1q57 0 67.5 -6t10.5 -10v-2v0z" />
<glyph unicode="Z" horiz-adv-x="837" d="M1698 -170q14 -29 16 -50.5t-24 -39.5q-80 -63 -175.5 -97t-195.5 -38t-199.5 20.5t-189.5 79.5q-39 25 -73 54.5t-67.5 58t-69.5 56.5t-75 48q-25 16 -48.5 24.5t-47.5 16.5q-12 4 -38 8t-53.5 9.5t-52 9.5t-36.5 6q-2 0 -16.5 1t-34 2t-41 2t-37.5 1q-35 0 -74 1t-68 1 q-18 0 -30.5 10.5t-17.5 24.5t0 31.5t22 29.5v2q2 0 11 14.5t15 18.5q4 4 9.5 7t9.5 8q4 4 12 19t12 21q0 2 6 11q8 8 19.5 24.5t13.5 20.5q4 6 7 12t8 14l12 25q0 2 1 3t1 3q4 14 12 23q10 8 17.5 18t13.5 25q4 6 7 13t7 13q10 18 20.5 36t20.5 34q4 4 5 7t3 7q16 23 27 41 q14 20 27 43q2 4 3 7t5 8q4 10 8 17t8 15q10 10 14.5 19.5t8.5 23.5q27 35 51.5 76t40.5 74q18 31 31 49q10 41 5 59.5t-42 24.5q-20 8 -36.5 9t-37.5 1q-45 2 -84 -1t-84 -1q-23 2 -43 -4t-43 -4q-16 0 -33.5 -12.5t-34.5 -8.5q-10 2 -14 11.5t-7 20.5t-4 21.5t-3 14.5 q-4 8 -3 34.5t5 37.5q16 12 33.5 10t36.5 0q8 2 16 1t16 -1q6 -2 17 -2q14 0 29.5 2t31.5 -2q4 0 8 4h8q4 -2 31 -4t56.5 -4t54 -2h28.5h7q20 -4 38.5 -7t36.5 1q14 4 39 5t52.5 0t54 -1h45.5q35 0 40 -24.5t9 -49.5q2 -6 0 -15.5t-20 -19.5q-4 -2 -13.5 -11t-11.5 -13 q-4 -10 -13.5 -24.5t-19.5 -29.5q-4 -4 -6 -9t-6 -9q0 -6 -14 -25q-4 -8 -11.5 -19t-22 -34.5t-39 -61.5t-63.5 -100q-2 -4 -3 -7t-5 -7q-6 -12 -15 -29.5t-36 -64.5q0 -2 -2 -4q-2 -4 -2 -6.5t-4 -6.5q-6 -12 -23.5 -40.5t-40 -64.5t-46 -73t-42.5 -63q-10 -27 -14 -55.5 t10 -53.5q4 -4 10.5 -7t10.5 -5v-2q18 0 36.5 -1t36.5 -3q4 0 7.5 -1t7.5 -1q8 0 22.5 -2t29.5 -3t29.5 -3.5t20.5 -4.5q41 -12 78 -25.5t59 -23.5q72 -35 128.5 -86t119.5 -98q80 -57 180.5 -98t200.5 -41q96 0 177 25.5t153 82.5q10 8 16 12.5t29 8.5q10 0 23.5 -9.5 t17.5 -19.5z" />
<glyph unicode="a" horiz-adv-x="917" d="M852 37q4 -16 -5 -21.5t-20 -7.5q-2 -2 -4 -2t-6 -2q-8 -2 -53 -2h-47q-8 0 -12 4l-5 4q-10 6 -10 21.5t2 21.5q0 4 -2 8q0 4 -1 6.5t-1 6.5q0 6 -1 22.5t-3 20.5q-2 0 -2 10q-2 6 -3 15.5t-3 17.5q-14 29 -39 55.5t-43 36.5q-6 4 -26.5 10t-43.5 12q-20 6 -30.5 10.5 t-16.5 8.5q-16 8 -31.5 12t-44.5 12q-37 10 -59.5 10.5t-37.5 -10t-26.5 -31t-25.5 -48.5q0 -4 -2 -7q-4 -16 -8 -24q-4 -18 -7.5 -37.5t-11.5 -42.5q0 -10 -4 -27.5t-4 -27.5q0 -4 -1 -5t-1 -6v-10q2 -6 2 -21.5t-10 -21.5q-2 -2 -4 -2q-4 -6 -13 -6h-47q-45 0 -53 2 q-4 2 -6 2t-4 2q-10 2 -19.5 7t-5.5 22q4 14 13 22l6 6q6 6 11 18.5t7 16.5l10 23q2 2 6.5 14t9.5 27.5t9 31t4 23.5q2 6 11.5 50t21.5 97.5t24.5 101.5t16.5 64q0 4 4 13v4q4 8 7 23.5t24 74.5q0 4 4 17q2 8 8 32.5t13 58t16.5 71.5t17.5 73q6 20 6 29q4 12 6 20 q4 10 5 19.5t3 19.5q2 20 1 34.5t-1 18.5q-8 18 -1.5 26.5t10.5 12.5q8 4 24 4q27 0 58 -8h18t18 2q14 2 32 2h34q12 2 22.5 3t18.5 1q12 0 24 -4q4 -4 10.5 -17t-1.5 -30q0 -4 1 -16.5t1 -16.5q4 -10 6 -23t6 -28q2 -4 2 -10t2 -10q0 -2 2 -10.5t6 -18.5q2 -8 5 -20.5 t9.5 -37t15.5 -67.5t24 -110q2 -4 3 -8.5t3 -8.5q4 -12 9 -31.5t23 -83.5q4 -16 15.5 -64t24 -101.5t22.5 -97.5t12 -50q2 -8 6 -23.5t8.5 -31t9.5 -27.5t7 -14q2 -4 4 -10l4 -13q6 -18 19 -32l6 -7q6 -8 12 -22zM541 391q29 0 47 14.5t10 47.5q-6 25 -9 37t-9 34 q-2 4 -3.5 7.5t-3.5 7.5l-4 16t-4 18q0 6 -2 13.5t-6 25t-12 49t-21 87.5h-2v4q-2 4 -3 11t-5 17q-10 47 -16 55.5t-9 18.5q-12 47 -34.5 58.5t-40.5 -35.5q-2 -12 -7.5 -35t-15.5 -62q-2 -6 -3 -12t-5 -22.5t-11 -47t-20 -82.5q-6 -12 -8 -22t-4 -21q0 -10 -4 -22 q0 -4 -1 -6t-1 -6q-2 -18 13 -48t32 -40q29 -12 44 -19.5t22.5 -10.5t8.5 -4l1 -1l15 -6t22 -7q23 -6 25.5 -7t6.5 -3q5 -2 17 -2z" />
<glyph unicode="b" horiz-adv-x="1058" d="M971 360q2 -16 3 -32.5t-3 -26.5q-4 -14 -6 -27.5t-4 -23.5q-2 -16 -9.5 -39t-17.5 -51q-4 -4 -14.5 -17.5t-22.5 -28t-22.5 -25.5t-14.5 -13h-2q-12 -4 -16 -8t-9.5 -5.5t-9.5 -5.5q-10 -4 -17 -9t-15 -9q-10 -4 -18.5 -8t-18.5 -8q-6 -4 -13.5 -6.5t-13.5 -6.5 q-23 -10 -45.5 -13t-44.5 -5q6 0 -7.5 0h-31.5t-34 1l-17 1q-10 2 -25.5 3t-25.5 1h-11q0 2 -16 2q-10 0 -25.5 -1t-31.5 -1h-86q-35 0 -46.5 1t-15.5 1q-4 2 -17.5 -1t-19.5 -3q-4 0 -10 -1t-12 -1q-4 -2 -12 -2q-33 -6 -42.5 -7t-33.5 -10q-10 -6 -25.5 -11t-30.5 -5 q-10 0 -12 2q-8 2 -19.5 11.5t-15.5 17.5q-12 20 -10 28.5t21 24.5q23 18 44 27.5t40 19.5q25 14 39 22.5t23 26t15.5 50t10.5 94.5q2 16 2 35.5v37.5q2 16 2 30.5t2 31.5v8q0 8 -10 12l-9 4h-6h-8q-4 0 -5 -1t-5 -1q-8 0 -17 6q-12 8 -24.5 28t-7.5 36q0 8 6 12q0 4 4 4 q12 10 27.5 22.5t25.5 18.5q20 10 25 45q0 2 1 4t1 7q4 20 5 31.5t1 21.5t-1 22.5t1 34.5q2 16 3 30.5t-1 20.5q-2 4 -2 10.5t-2 10.5q0 6 1 12t-1 12v13.5t2 31.5q2 18 3 31t1 23q-2 10 -10 21.5t-19 13.5h-2q-4 0 -9 1t-9 1t-7 -1t-8 -1q-6 -2 -16 -2q-14 0 -18 4t-13 14 v2l-2 2v8q0 10 -2 15q-2 25 21 36q4 2 5 3.5t5 3.5q8 4 14 6q6 4 12.5 5t10.5 3q10 0 31.5 2t44.5 6q29 4 54 7t36 3q10 2 19 2t20 2q8 2 15 2t17 3h5q2 0 19 2t38.5 3t39 3t19.5 2t3 -1t5 -1q8 0 13 -2q6 0 12 -1t12 -1h2q2 0 14.5 -2t14.5 -2q8 -2 20 -7q12 -4 31 -12 q4 -4 6 -5t4 -3q33 -27 52.5 -43t34 -33.5t24.5 -39t23 -58.5q16 -47 -2.5 -97.5t-38.5 -95.5q4 -6 14 -8h2q14 -10 44 -31.5t60.5 -49t55 -62.5t30.5 -74q2 -14 6.5 -35t6.5 -76zM309 670q0 -4 1 -9.5t1 -9.5q0 -6 1 -11t-1 -11q0 -8 4 -17q8 -4 17 -4q4 2 7 2t7 2 q10 4 17.5 6.5t17.5 6.5q12 6 35.5 14t48 16.5t47.5 16.5t37 14q6 2 18.5 11.5t24.5 18.5t22.5 17t12.5 12q16 25 30.5 45.5t20.5 41t0 42t-31 46.5q-2 2 -4 3t-6 5q-12 10 -19.5 21.5t-21.5 17.5q-4 4 -10 6t-11 6q-4 4 -8 3t-8 1q-12 6 -33.5 6t-44 -1t-45 -3t-37.5 0 q-4 0 -8 -2q-12 0 -18 -2q-53 -16 -54 -57q0 -29 -2 -50.5t-2 -50.5v-24zM852 317q4 59 -12.5 115.5t-51.5 91.5q-16 16 -40.5 29.5t-52 22t-55.5 9.5t-48 -7q-18 -8 -44 -19.5t-53.5 -22t-52 -19.5t-39.5 -13q-4 -2 -5 -3t-5 -3q-2 0 -4 -2l-8 -4q-16 -12 -32.5 -23.5 t-29.5 -34.5q-6 -12 -6 -24q-2 -6 -2 -19q-4 -16 -5 -25.5t1 -25.5q0 -6 1 -12t1 -13q0 -23 2 -32q2 -10 2 -39v-25.5t2 -17.5q2 -2 2 -4t2 -4q6 -18 11.5 -36t19.5 -28q14 -12 17 -12q4 -2 7 -3t7 -3q12 -4 20 -7q35 -4 65 -3t60 -3q16 -2 30.5 -3t29.5 -1q23 0 44 5t44 10 q6 2 27.5 9t35.5 15q12 8 13 8q10 8 21 15.5t26 17.5q41 29 46 62.5t9 80.5z" />
<glyph unicode="c" horiz-adv-x="782" d="M713 248q18 -10 29.5 -34t2.5 -42q-8 -16 -12 -22l-4 -9q-16 -31 -43 -55.5t-55 -46.5q-35 -29 -72 -37t-65 -10q-6 -2 -13.5 -1t-13.5 1h-4h-17h-2h-8q-8 -2 -15 -3t-18 -1q-18 2 -33.5 8t-29.5 12q-18 10 -44 19.5t-42 27.5q-37 27 -68.5 57.5t-57.5 74.5t-45.5 106.5 t-33.5 152.5q-4 10 -4 21.5v21.5q-6 45 -4 89q0 37 3 66.5t13 53.5l2 2q0 2 1 4.5t1 4.5q4 27 13.5 50t19.5 48q4 4 5 8t5 8q4 16 12.5 28.5t16.5 25.5q8 16 14 24l3.5 7l3.5 7t4 7.5t4 7.5q10 16 21.5 29.5t23.5 25.5q8 6 13 12.5t9 12.5q14 14 37 30q4 4 7 5.5t8 5.5 q18 12 36 22q35 20 50 25q41 16 88 12t94 -14q12 -4 16 -4q4 -2 8.5 -2t8.5 -5q8 -4 15 -7t13 -7q2 -2 4 -2t4 -2q6 -4 18.5 -9t22.5 -16l7 -6q4 -2 6 -4t6 -4q14 -10 29.5 -31.5t24.5 -49t11 -57.5t-10 -56q-4 -8 -8 -21q-10 -37 -36.5 -54.5t-51.5 -16.5t-40 17.5t-5 47.5 q2 16 12 29q16 16 15 43.5t-17 46.5q-18 23 -28.5 29t-32.5 16q-23 10 -39.5 11t-36.5 1h-4q-16 4 -31.5 0t-34.5 -6q-4 -4 -10 -4q-14 -2 -30.5 -11.5t-32 -22.5t-28.5 -28.5t-20 -27.5q-6 -4 -14 -21q-4 -8 -10 -14q-16 -18 -24.5 -39t-16.5 -45q-6 -16 -11 -33.5 t-16 -34.5q-10 -25 -12 -51q-2 -12 -3 -38.5t-1 -50.5t-1 -38t-1 -2q6 -80 23.5 -138.5t40 -101.5t46 -71.5t41.5 -48.5q45 -41 87 -44t106 5q18 6 33.5 14t31.5 19q4 4 10.5 9t12.5 11q4 4 5 6t5 6q10 10 19.5 20.5t17.5 26.5q2 2 2 3t2 4l2 2q4 6 13.5 13t23.5 7 q13 0 27 -10z" />
<glyph unicode="d" horiz-adv-x="937" d="M879 639q10 -51 8 -100.5t-6 -96.5q0 -10 -1 -18t-1 -18q-2 -8 -2 -25q0 -12 -1.5 -23.5t-3.5 -23.5q-4 -16 -4 -25q-4 -27 -10 -50t-16 -48q-14 -27 -33 -49q-12 -14 -25.5 -29.5t-29.5 -30.5q-25 -23 -49 -36q-4 -4 -10.5 -7.5t-10.5 -7.5q-6 -6 -10 -8q-4 -4 -17 -12 q-10 -8 -24.5 -14.5t-30.5 -10.5q-6 -2 -14 -4t-17 -4q-16 -4 -32.5 -8t-32.5 -4h-8q-16 2 -31.5 4t-28.5 4q-18 2 -37.5 4t-44.5 4h-49q-10 -2 -21.5 -2h-23.5h-14h-8q-18 0 -36 -3t-36 -7q-2 -2 -4 -2t-4 -2q-16 -10 -39 -21q-29 -16 -51 -33q-12 -12 -29 -12q-6 0 -18 4 q-8 4 -22.5 20.5t-14.5 30.5q-2 10 6 30t20 28q4 4 7.5 5t7.5 5q14 8 25 18.5t28 16.5q14 6 33.5 19.5t37 34t30 47t14.5 59.5q6 47 10 81.5t0 88.5q-2 18 -1 34.5t3 32.5q2 14 3 42t1 50v23q2 12 3 30.5t1 22.5v10q0 4 1 34t-1 63q2 23 3 41t-3 40q0 8 -1 8.5t-1 10.5 q0 47 -22.5 77.5t-71.5 28.5q-4 0 -8.5 1t-8.5 1q-14 2 -27.5 10.5t-17.5 22.5q-2 2 -1 11.5t2 21.5t4.5 22.5t7.5 16.5q10 10 31.5 13t23.5 3h23.5t41.5 2q25 0 56 2q14 0 22 -2q6 -2 23 -2q16 0 26 2h21q16 0 22 2h31h2q10 0 23 -4h4q4 -2 7 -2t7 -2q12 -4 19 -4 q31 -6 59 -18q18 -10 37 -13q10 -4 18 -5t17 -5q6 -6 33.5 -19.5t52.5 -33.5q10 -8 17 -14.5t11 -10.5l15 -14q14 -12 27.5 -26.5t25.5 -30.5t21.5 -33t17.5 -33q4 -4 5 -9t5 -9q18 -35 39 -78l6 -12q8 -16 14.5 -33t4.5 -35zM739 293q6 29 12.5 75t6.5 105t-13.5 133 t-46.5 160q-8 16 -14 25q-8 10 -14 19t-15.5 19.5t-24 24.5t-40.5 33q-10 6 -17.5 10t-17.5 8q-16 10 -27.5 15.5t-27.5 13.5q-29 12 -48.5 19.5t-45.5 7.5q-37 0 -53.5 -18.5t-20.5 -46.5t-3 -61.5t-1 -66.5q4 -29 2 -58.5t0 -60.5q0 -8 -1 -16t-1 -17q0 -8 -1 -14t-1 -12 v-45q2 -14 1 -27.5t-1 -28.5q0 -18 -2 -49.5t-3.5 -63.5t-2.5 -55.5t-1 -27.5v-2v-14.5t-2 -16.5q-4 -23 -2 -44t4 -44q4 -20 15 -29q8 -8 23.5 -14t19.5 -8q6 0 14 -4q4 0 6 -1t4 -1q6 -2 12.5 -2t10.5 -2q10 -2 19.5 -3.5t19.5 -3.5h16q14 0 23 -2q14 -2 30 4h2q4 4 13 5 q18 4 39.5 17t43 27.5t38 27t22.5 18.5q10 10 18.5 23.5t14.5 23.5t11 22.5t7 22.5z" />
<glyph unicode="e" horiz-adv-x="808" d="M780 68q4 -16 2 -35t-14 -29q-10 -8 -22.5 -10t-22.5 -2h-14h-13q-29 2 -67.5 4t-73.5 6q-23 2 -41 3t-29 1h-2v-2l-4 2h-26q-23 0 -44.5 -1t-29.5 -3q-10 -2 -31.5 -4t-44.5 -6q-18 -4 -44 -6t-28 -2q-10 -4 -24 -7.5t-31 -7.5q-12 -2 -23.5 -4t-15.5 -4q-8 -6 -16 -6 t-19 -4h-2q-4 0 -20.5 -4t-26.5 -8h-6q-10 0 -20.5 7t-16.5 15q-6 10 -5 37t11 35q6 6 16.5 9t16.5 7q8 4 16.5 10.5t18.5 10.5h2q8 4 14 8q29 14 43.5 30.5t22.5 67.5q0 8 2 19l2 14v12v28.5t4 31.5q2 10 2 20v21q0 10 -1 19t3 19q0 6 2 41t4 58v10q0 10 1 25.5t1 23.5 v16.5t-2 28.5v32.5t-2 22.5q0 6 1 11.5t1 9.5q2 6 2 14q0 10 -1 20.5t-1 20.5v21.5t2 21.5q0 6 1 16.5t1 22.5v40t-6 55.5t-19 49t-40 21.5q-12 2 -15.5 1t-13.5 1q-12 2 -22.5 11.5t-16.5 22.5t-8 26.5t0 21.5q0 16 17.5 24.5t38 11.5t39 4t24.5 1q-4 0 38 2t113 0h9h34h89 h41h31.5t45 1t82.5 5q12 0 15 -2h6h6h13t11 -2v-2q6 -6 9.5 -17.5t4.5 -24.5t-1 -24.5t-4 -15.5q0 -6 -4 -14q-6 -23 -11 -25l-4 -4q0 -2 -4 -6q-10 -10 -18 -10t-13.5 4t-11.5 8q-4 4 -8 7t-10 7q-8 4 -23.5 4h-23.5h-27h-21h-15t-13 1.5t-25.5 1.5h-52.5h-45 q-4 0 -10.5 -2.5t-10.5 -2.5q-18 -4 -39.5 -28.5t-21.5 -48.5q0 -16 -1 -19.5t-1 -21.5q2 -4 1 -13.5t-1 -27.5v-65t4 -50q-2 -10 0 -21.5t10 -17.5q6 -10 21 -6q6 2 6 4q4 0 10 2q8 0 25.5 5t37 10.5t36 6.5t22.5 -8q6 -10 5 -34.5t-5 -53.5v-6q0 -8 -6 -17t-15 -11l-6 -3 q-6 0 -10 2.5t-10 4.5q-29 2 -42 -3.5t-30 -19.5q-43 -35 -48 -63.5t-7 -59.5q0 -2 -1 -13t-1 -24.5v-28v-24.5v-24q-4 -4 -2 -14.5t0 -45.5v-12q0 -59 29.5 -74.5t101.5 -15.5h10q10 0 18.5 -1t18.5 -3q10 0 20.5 -1t20.5 -1q14 0 20 2h17q10 0 20 2t23 0h35h6q33 2 47 8 t24 12q8 4 16.5 8t22.5 7h4q8 0 15 -7q10 -10 13 -33.5t9 -41.5z" />
<glyph unicode="f" horiz-adv-x="765" d="M248 27q10 -14 11 -17.5t-3 -11.5q-2 0 -2 -2q-2 -2 -2 -3t-2 -3q-6 -6 -17.5 -8t-24.5 -3.5t-25.5 -1.5h-18.5q-23 -2 -33 -3t-14 6q-4 6 -4 7v7q0 20 7 29.5t7 31.5q-2 20 0 44t2 40q-2 2 -2 22.5v45t1 46t1 28.5q2 -6 2 25.5t-1 74.5t-1 84t2 51q2 23 3 47.5t1 48.5 q4 51 5 102.5t-1 102.5q4 14 3 26.5t1 26.5v16.5t-1 25t-5 23.5t-12 15q-12 6 -26.5 8.5t-26.5 6.5q-27 10 -37 29.5t-7 38t16 31.5t32 13h48t55.5 1t52 0t38.5 -5q18 -4 37 -1t39 7h6h28t56.5 2t57 4t30.5 5h8q8 -4 11 -5q16 4 30.5 2t30.5 -2q10 0 17 2q8 0 16 1.5 t16 -1.5q18 -2 37 0.5t35 -10.5q2 -6 3 -16t1 -21.5v-21.5t-2 -14t-3 -15.5t-4 -23t-8 -20.5t-16 -11q-16 -4 -33.5 9t-33.5 13q-23 -2 -43.5 4.5t-42.5 4.5q-45 -2 -85 1t-87 1q-20 0 -37 -1t-37 -10q-10 -4 -20.5 -19t-14.5 -26q-4 -8 -6 -22.5t0 -30.5q2 -33 0 -96 q-2 -14 -2 -34.5t5 -38t17.5 -28t36.5 -2.5q10 2 28.5 5.5t37 6.5t35 6t26.5 5q25 12 36 -5.5t14.5 -45t-1 -53t-10.5 -29.5q-10 -12 -20 -12q-6 2 -15.5 5t-23.5 4t-36 -3t-50 -17q-12 -4 -21 -10q-10 -8 -20 -14t-21 -15q-12 -10 -24 -75l-1 -20q-1 -21 -1 -45.5v-46 v-24.5v-30.5t-1 -47t-2 -45t-1 -24.5q0 -14 1 -40t-1 -42q0 -14 6 -20z" />
<glyph unicode="g" horiz-adv-x="890" d="M811 958q6 -4 15.5 -23.5t0.5 -31.5l-2 -2q-4 -6 -14 -13t-24.5 -15.5t-29 -13.5t-24.5 -5t-15 7t-8 16.5t-6.5 19.5t-11.5 18q-33 35 -59 43q-8 2 -25 11q-20 10 -45.5 13t-52.5 3h-2h-8q-10 0 -21.5 -2t-21.5 -6q-43 -14 -86 -40t-78 -75q-25 -25 -37 -44t-20.5 -35.5 t-15.5 -34t-19 -37.5q-2 -4 -8.5 -17.5t-18.5 -66.5q0 -4 -2 -11.5t-4 -19.5q-2 -8 -4 -14.5t-2 -10.5v-8v-14q0 -10 2 -22.5t2 -24.5q-2 -20 0 -41t4 -27q0 -4 1 -9t1 -9q2 -10 3 -20.5t5 -18.5h2q0 -4 1 -6t1 -6q-2 -14 5.5 -39t11.5 -31q10 -16 18 -24.5t19 -24.5 q8 -10 15 -18.5t15 -16.5q12 -10 25 -25q2 -2 2 -3t2 -3t2 -3t2 -3l10 -10t15 -12l14 -7q2 -2 8 -3t14 -5t19 -8q18 -10 41 -12q14 0 22 -2q12 -4 21 -4h6h4q41 0 86 32.5t84 71.5v2q12 10 22.5 36t20.5 42l2 6q4 4 6 21.5t4 39.5q2 12 3.5 17.5t3.5 21.5v31q2 51 -5.5 81 t-14.5 45t-9 22.5t8 15.5q8 12 35 16q6 0 25.5 2t31.5 2q39 0 45 -18l2 -2q2 -8 -2 -29q-2 -8 -2 -18q2 -20 3 -51t0 -64t-2 -63.5t-3 -48.5q-4 -45 -3 -86t3 -86v-15q0 -8 1 -21.5t5 -17.5v-2q0 -14 1 -26.5t3 -22.5q2 -16 2 -28.5t-10 -16.5h-2q-10 -4 -31.5 -7t-42.5 -3 q-16 0 -33.5 3t-17.5 17q0 43 -18.5 39t-65.5 -22q-29 -16 -68.5 -26.5t-72.5 -10.5q-45 0 -85 7t-50 13l-6 2q-14 10 -29 17q-12 8 -18 14q-2 2 -5.5 4t-9.5 6q-12 8 -30.5 21.5t-34.5 27.5q-4 6 -21 23q-16 16 -39.5 43t-40.5 65q-4 8 -18 40t-19 75v10q-2 6 -2 17 q0 6 -1 10t-1 10q-2 16 -3 29.5t-5 30.5q-2 12 -5 33.5t-4 45t-1 44t4 30.5q2 4 3 9.5t3 9.5q2 8 2 14t4 10q2 4 4 15.5t7 23.5q4 10 6 19.5t4 13.5q8 18 21.5 46t26.5 54.5t24.5 48t15.5 27.5q10 18 35.5 44t56.5 52.5t62.5 47t54.5 26.5q2 0 14 4t25.5 8t26 8.5t16.5 6.5 q31 6 61 6q6 0 11.5 -1t9.5 -1q6 -2 20 -4t29 -6q12 -4 23.5 -5.5t17.5 -3.5q27 -6 56.5 -21.5t51.5 -35.5q8 -6 15.5 -12t15.5 -11q16 -12 23 -18q4 -4 9 -10t9 -10q0 -2 1 -2.5t1 -2.5z" />
<glyph unicode="h" horiz-adv-x="784" d="M754 1067q6 -8 1 -20.5t-10 -20.5q-4 -8 -8 -20q-2 -6 -2 -19.5t2 -19.5l-2 -11q-2 -10 -5 -29.5t-3 -23.5t1 -25.5t1 -46.5v-63q0 -8 1 -15.5t-1 -17.5v-78v-14q0 -20 1 -38.5t1 -39.5v-18q0 -10 2 -15q0 -10 1 -18t-1 -16q-2 -6 -2 -13.5v-26t1 -52t1 -91.5h2v-4v-11 t-2 -17v-83t-4 -32v-14.5t2 -18.5v-24.5t-2 -24.5q2 -20 4 -27.5t4 -11.5q6 -10 6 -24v-3q0 -6 -1 -8t-5 -6v-2q-4 -6 -30.5 -8t-40.5 -2q-18 0 -43 3t-33 13q-4 4 -7 13.5t9 25.5q2 4 4 16.5t2 16.5q-2 10 -1 26.5t3 32.5v21v31v30q0 35 -4 73t-6 48q-4 23 -19.5 34 t-25.5 15q-2 2 -3 2t-3 2l-13 6q-4 2 -8 7l-8 4l-8 4q-8 4 -14.5 8t-16.5 8q-10 6 -43 23.5t-71 37t-71.5 36t-45.5 20.5q-6 2 -15 2q-10 0 -28.5 -16.5t-20.5 -42.5q-4 -47 -2 -60.5t0 -21.5v-18.5t-1 -32t-1 -32v-16.5q2 -12 1 -46t-3 -74v-29v-23q0 -16 1 -32.5t-1 -26.5 q0 -4 1 -13.5t3 -13.5q12 -18 8 -28q-2 0 -2 -2q0 -4 -2 -6.5t-4 -6.5q-10 -12 -55 -12q-6 0 -19.5 1t-29 3t-28.5 5t-15 7q-6 0 -7 9q-2 6 0.5 10t4.5 8q4 4 8 14.5t6 32.5q-2 12 -1 25.5t1 25.5q0 10 1 17.5t1 13.5q-2 8 -2 32.5v82.5v13t1 31.5t3 73t6 132.5v14l2 18 q2 20 2 39t2 39v15q2 20 2 39.5v37.5q0 23 2 33q4 27 -2 49q-2 8 2 25v6q2 6 1 12t-1 15q-2 8 -2 28q2 4 3 15.5t-3 21.5v2v2q2 6 1 37t-5 49v6q-8 23 0 39q4 2 5 4t5 7h3q6 4 30.5 5t36.5 1q14 0 29.5 -1t25.5 -3q16 -6 17 -25q2 -10 -6 -27v-2q-10 -20 -11.5 -48.5 t-5.5 -96.5v-29q0 -23 1 -51.5t5 -44.5t19.5 -39.5t40.5 -38.5q29 -16 62.5 -34.5t63 -35t51 -28.5t26.5 -14q20 -6 43.5 -17.5t44 -14.5t37 6t26.5 44v63.5t2 94.5t4 89t2 50q2 16 0 43t-4 33v6t-2 18v2q-2 10 -4 18.5t-6 18.5q-2 4 -6 8q-4 8 -4 25q0 16 9 19t19 3h15 q6 0 22.5 -1t33.5 -2t31.5 -2t20.5 -3q13 -2 19 -12z" />
<glyph unicode="i" horiz-adv-x="243" d="M49 43q4 6 5 11t5 12q2 6 3 24.5t-1 22.5l1 9t2.5 20.5t1.5 21.5v14q-2 12 -1 25.5t-2 27.5q0 8 -2 15.5t0 13.5q8 20 5 41t0 43v92q0 25 1 49.5t1 46.5q0 23 -1 48.5t-6 48.5q4 23 5.5 47t1.5 43.5t-1 34t-4 14.5v27.5t1.5 46t2.5 44t1 23.5q4 16 2 40t2 44 q-2 18 -6.5 27.5t-7.5 14.5t-5 9.5t-2 14.5v7t4 7q4 4 25.5 6t48.5 1t50.5 -5t31.5 -10q4 -4 6 -11t-10 -20q-4 -4 -7 -18.5t-3 -18.5q4 -14 1 -39.5t-3 -39.5q-2 -6 -1 -42t1 -69v-4q0 -2 -1 -23.5t-2.5 -48t-2.5 -52.5t-1 -34v-33.5t2 -33.5v-19q2 -10 1 -18.5t2 -16.5 q0 -4 1 -7t-1 -7q0 -16 -1.5 -65.5t-3.5 -103.5t-4 -99t-2 -54q-2 -18 0 -44.5t6 -34.5v-13q0 -6 2 -12q2 -16 15 -35q6 -12 8 -15t2 -16q0 -14 -13.5 -14h-29.5q-6 0 -22.5 -2t-36 -3t-36 -2t-22.5 1q-10 2 -16 10q-6 6 0 17.5t10 17.5z" />
<glyph unicode="j" horiz-adv-x="702" d="M623 283q0 -14 -1 -27.5t-8 -26.5q-4 -10 -6 -19t-6 -20q-8 -20 -13 -39.5t-16 -39.5q-6 -14 -17 -26.5t-21 -25.5q-23 -23 -48 -41q-12 -10 -39.5 -15t-41.5 -15q-4 -2 -24 -4t-45.5 -3t-52 -1h-46.5q-49 10 -83 31.5t-65 49.5q-4 4 -6 5.5t-4 5.5q-23 23 -35 53.5 t-12 60.5q0 4 -1 7.5t-1 7.5q0 25 5 35t27 20q8 4 33 5t39 -1q20 -4 21 -16q4 -18 -3.5 -39t3.5 -39q12 -23 25.5 -37t41.5 -23q4 0 25.5 -9t32.5 -5q27 6 63.5 4t61.5 13q4 4 9 6t9 6q14 16 23.5 27.5t19.5 33.5q8 16 15 30.5t10 31.5q4 23 7 34t5 33q4 25 6 50.5t6 50.5 q0 8 -1 15t1 13q0 16 1 30.5t-3 31.5q-2 4 -2 12q0 18 1 36.5t1 37.5q0 4 -1 35.5t1 48.5v31.5t-1 40t-2 37t1 22.5q4 35 2 70.5t2 72.5q2 8 -2 25q2 33 0 52t-12 40q-8 20 10 29q8 4 27.5 5t40 1t38 -2t21.5 -2q20 -8 14 -29q-2 -4 -5 -9t-5 -12q-2 -10 -3 -46.5t-3 -53.5 q-2 -12 -3 -24.5t-1 -24.5q-2 -18 0 -37.5t2 -38.5q0 -12 -3 -26.5t1 -26.5q4 -16 4 -31.5t-2 -32.5q-2 -35 -3 -69.5t-3 -67.5q0 -31 1 -62.5t3 -62.5q0 -16 -1 -38.5t-3 -39.5q-2 -12 -5 -38.5t-1 -40.5z" />
<glyph unicode="k" horiz-adv-x="845" d="M772 57q8 -10 14.5 -21t1.5 -22q0 -4 -9 -8t-52 -4q-12 0 -29.5 1l-35 2t-31 4t-15.5 7q-10 16 -12 25.5t0 15.5q0 10 -1 19.5t-13 25.5l-4 9q-2 6 -6.5 15t-12.5 15q-4 2 -8 11l-2 2q-6 10 -9 17t-7 15t-7.5 15.5t-9.5 13.5v2l-2 2q-8 20 -14 33.5t-16 30.5q-4 8 -11 16 q-2 6 -10 18q0 4 -2 7v2q-14 12 -25 32q-2 4 -3 7.5t-3 7.5q-2 2 -3 4t-5 6q-27 43 -47.5 80t-24.5 43q-12 20 -26 20q-6 0 -10.5 -3t-8.5 -5q-8 -8 -20 -16q-4 -4 -10.5 -6t-12.5 -11q-14 -14 -20 -18q-35 -27 -43 -53.5t-12 -67.5q-2 -4 -3.5 -28.5t1.5 -36.5 q-2 -10 -2.5 -37t-0.5 -58v-104v-6q0 -8 -2 -13q2 -6 3.5 -11t3.5 -11q2 -10 4 -17.5t-2 -17.5q-2 -10 -17 -10q-6 0 -8 -2q-16 -4 -27 -4h-14h-12q-10 -2 -16.5 -2h-12.5q-4 0 -17.5 2t-15.5 16q-4 12 2 23q4 10 7.5 30.5t1.5 73.5q-2 23 -1 43.5t3 38.5q0 14 1 28.5 t1 26.5q0 31 -1 59.5t1 55.5v37v35v18.5t1 33.5t1 31.5v16.5v14q0 14 2 64.5t4 104t3 94t-1 38.5v25v15.5t-2 17.5q0 6 -2 32.5t-2 36.5q0 12 -2 19q-2 6 -2 18q-4 20 16 25q4 2 21.5 3t33.5 1q20 0 41 -1t27 -7q10 -6 8 -15.5t-6 -17.5q0 -4 -1 -6t-1 -4q2 -10 1 -18.5 t-3 -18.5t-3 -17.5t-1 -17.5q2 -8 0 -16v-2q0 -2 -1 -17.5t-1 -33t-1 -33t-1 -17.5q0 -8 -2 -12q-4 -45 2 -82v-31q0 -37 9 -51t22.5 -14t31 12t33.5 29l4 2q16 18 35 35q10 10 19.5 19t19.5 20q6 4 11 11t11 13q8 12 17 21l18 18q6 8 13.5 14.5t13.5 12.5q4 4 7 9t7 9 q4 2 24.5 26.5t43 54.5t42 55.5t21.5 31.5q2 8 6 17.5t15 13.5q20 4 63 4q35 0 52.5 -7t23.5 -18q6 -6 2 -18q-2 -6 -21 -21q-16 -12 -22 -18q0 -4 -4 -8q-2 0 -2 -2q-10 -10 -27.5 -32t-27.5 -32q-8 -10 -15.5 -20.5t-13.5 -20.5q-10 -12 -18.5 -24.5t-18.5 -20.5 q-8 -8 -12 -10q-2 -4 -4 -5t-5 -3q-12 -12 -24 -27.5t-23 -28.5q-12 -16 -23 -30.5t-28 -28.5q-4 -6 -10 -11t-10 -11q-8 -2 -15 -13q-14 -16 -5 -29.5t20 -29.5q2 -4 3 -5t3 -5t4 -7.5t4 -7.5q4 -8 8 -12q4 -8 8 -10q4 -8 9.5 -16.5t9.5 -16.5q4 -10 10 -21.5t10 -21.5 q6 -10 11.5 -20.5t11.5 -20.5l4 -8t6 -8t4 -9q8 -12 13.5 -21t9.5 -20q4 -10 9 -20t15 -23q4 -6 7.5 -13t7.5 -13q4 -8 7 -16.5t7 -14.5q10 -10 15 -19.5t12 -19.5q4 -8 6 -10q8 -10 11 -17.5t7 -11.5q4 -6 8 -11t13 -19l7 -12q7 -11 15 -24.5t15 -24.5l8 -11q4 -9 16 -25z " />
<glyph unicode="l" horiz-adv-x="874" d="M840 63q4 -16 2 -34.5t-15 -28.5q-10 -8 -22 -10t-23 -2h-26l-142 10q-23 2 -55.5 2t-120.5 -2l-194 -2l-2 -2v2q-49 -4 -88 -18.5t-68 -18.5q-12 -4 -22.5 -5t-20.5 -3h-4q-12 0 -21.5 6t-11.5 18q-2 8 -4 29t2 25q25 37 78 47h2q8 0 20 4q25 6 42.5 15t28.5 27.5 t19.5 50.5t16.5 83q2 18 3 53t1 73v71.5v46.5q0 16 -1 34.5t-1 34.5v32.5t2 33.5v9v17.5t1 34t3 56.5q0 4 -1 8t1 8v22.5t-2 24.5q0 16 -1 34.5t3 37.5q2 14 1 28.5t-1 28.5q2 10 2 31q4 27 -4 40t-4 42q0 10 15.5 16t31.5 8h8q10 0 25.5 -1t31 -3t26.5 -6t11 -12 q2 -10 -4 -27q-4 -10 -7 -21.5t-3 -31.5v-78q0 -20 1 -39.5t3 -40.5q0 -8 -3 -44t-7 -83q-6 -70 -7 -120t-1 -89t1 -69.5t1 -61.5q-2 -10 -1 -18t1 -43q0 -33 1 -58.5t-1 -33.5q0 -10 2 -23.5t12 -25.5q20 -16 59.5 -25.5t116.5 -13.5q10 0 20.5 -1t20.5 -1q14 0 21 2 q63 -2 100 3t59.5 12t37 14.5t34.5 11.5q8 0 15 -7q10 -10 5 -38t1 -46z" />
<glyph unicode="m" horiz-adv-x="1048" d="M801 768q-6 -10 -22.5 -26.5l-24.5 -24.5q0 -2 -4 -6q-8 -10 -33 -36t-33 -38q-10 -23 -26.5 -33t-24.5 -33q-2 -6 -21.5 -10t-44 -3t-47 7t-28.5 19q-6 12 -14.5 29.5t-31.5 39.5q-23 29 -48 56.5t-29 31.5q-35 27 -52.5 31t-26.5 -12.5t-12.5 -48t-9.5 -74.5 q0 -2 -1 -14.5t-2 -28.5t-1 -33.5v-28.5q4 -16 3 -33.5t-3 -35.5q-4 -25 -4 -50.5t-2 -52.5q-4 -33 -5 -64.5t-3 -64.5v-21v-32.5t1 -34t1 -24.5q4 -27 8 -52.5t-2 -50.5q-2 -8 -17.5 -14t-35 -9t-37.5 -4t-27 -1q-12 2 -21 13t-5 28q8 35 11 65.5t1 67.5q0 14 -1 32.5 t-1 32.5q0 8 1 31t3 49.5t3 49t1 30.5v16q-4 29 -2 59t6 58q2 10 0 22.5t0 24.5q2 16 3 32.5t3 33.5v20q0 35 -1 71t-1 71v19t2 20q4 20 0 32.5t-4 34.5q-2 29 -5 53.5t-25 42.5q-6 4 -17.5 16.5t-24 27t-22.5 26.5t-16 16q-10 8 -18.5 15.5t-8.5 25.5q0 10 5 26.5t15.5 31 t25.5 23.5t38 5q6 -4 13 -6t12 -6q10 -8 27.5 -25.5t34.5 -36t33.5 -36t26.5 -25.5q6 -4 10.5 -8t8.5 -8q16 -16 27.5 -31.5t29.5 -30.5q4 -4 15.5 -14t11.5 -14q8 -4 22.5 -19.5t29.5 -34t28.5 -35t19.5 -22.5q16 -14 24.5 -24.5t22.5 -26.5q6 -8 16.5 -14.5t16.5 -14.5 q23 -27 49.5 -36t61.5 20q0 2 1 3t1 3q6 6 12 13t12 16q8 14 11 14q12 10 9 8t5 10q10 12 51 57.5t88 104.5q2 -2 12.5 15.5t26.5 37.5q10 12 13 23.5t12 24.5q10 23 50 21.5t81 -21.5q12 -8 8 -23q-2 -10 -6 -22.5t-6 -16.5q-4 -8 -5.5 -24.5t1.5 -26.5q0 -2 -1.5 -23.5 t-3.5 -48t-4 -52.5t-2 -34q0 -6 -1 -13t-1 -15q-2 -12 -1 -24.5t-1 -23.5q0 -6 -2 -34.5t2 -42.5q-4 -14 -4 -72.5t1 -128.5t1 -132.5t-2 -84.5q2 -29 0 -55q0 -14 -2 -40t-2 -30q2 -29 5 -45.5t4 -25.5t2 -17t-1 -21q0 -6 -3 -12t-7 -12q-4 -4 -18.5 -6t-32 -2t-32.5 2 t-21 4q-29 8 -30 15t1 24q4 12 8 25.5t4 41.5v18.5v37v40v29.5v19.5v29t1 28.5t1 19q4 16 3 33t-1 33q-2 18 0 36.5t4 37.5q0 4 1 8t-1 8q-2 10 -1 33.5t-1 32.5q0 4 -1 9t-1 11q2 29 0 62.5t-2 50.5q0 12 1 27.5t1 30.5t1 26.5t1 15.5q0 20 -7 26.5t-18.5 3.5t-22.5 -12.5 t-17 -21.5z" />
<glyph unicode="n" d="M684 553v14q2 4 3 17.5t2 29t1 28.5v20q4 41 3 82.5t-3 82.5q-2 14 -1 28.5t1 29.5q0 23 1 45t1 45t-8 47.5t-4 46.5q4 14 25.5 20.5t46 6.5t45 -6.5t22.5 -16.5q4 -16 0 -31.5t-8 -31.5v-13q2 -41 0 -79.5t-2 -77.5q0 -14 -1 -26.5t-3 -25.5q0 -4 -1 -5t-1 -3 q-2 -35 -2 -67.5v-67.5l6 -203q0 -10 -4 -26.5t-2 -26.5q6 -37 3 -71.5t-5 -73.5v-41q2 -43 3 -75t1 -75q0 -4 3 -16t5 -17q2 -16 -16.5 -23t-41 -9t-44 0t-23.5 4q-12 6 -15 14t-1 17.5t5 18.5t3 17q-2 6 -2 20.5t2 31t3 31t1 20.5q-2 10 -3 32.5t-5 34.5q0 2 -3 12.5 t-7.5 20.5t-8.5 19.5t-6 11.5q-16 16 -27.5 36.5t-27.5 37.5q-4 2 -16.5 16t-27.5 30.5t-27.5 31t-14.5 18.5q-10 10 -16.5 25.5t-16.5 25.5l-27 28q-28 27 -61 61t-61.5 64.5t-32.5 39.5q-12 14 -23.5 15t-20.5 -7t-15.5 -22.5t-6.5 -26.5v-19.5t-1 -6.5t-1 -4v-13 q-4 -53 -3 -98.5t1 -98.5v-51q4 -51 1 -105.5t-1 -105.5q4 -6 0 -10q-4 -29 -1 -47.5t7 -47.5q0 -12 4 -28q0 -4 1.5 -10.5t-1.5 -10.5q-2 -16 -26 -16q-33 -2 -60.5 -3t-37.5 1q-14 0 -23.5 3t-9.5 19q2 10 4 19.5t4 19.5q8 53 15 99.5t7 99.5q0 23 1.5 44t3.5 44 q0 20 -2.5 40.5t-2.5 41.5q2 29 -1 78t-1 88q-2 4 -1 10t1 10v19.5t0 -0.5t1 -1t1 19q2 35 2.5 67.5t4.5 67.5q2 35 -4.5 55.5t-2.5 55.5q0 41 -20 70q-14 23 -27.5 39t-29.5 38q-4 8 -17.5 19.5t-9.5 34.5q0 16 8 32.5t13 22.5q4 4 8 6t8 8q10 8 31.5 10.5t31.5 -8.5 q4 -4 12.5 -9t12.5 -9q25 -25 39 -41.5t25.5 -29.5t22.5 -26.5t30 -31.5q10 -10 18 -22.5t17 -22.5q25 -41 46 -71t46 -69q8 -12 15 -22t17 -21q4 -6 26 -28.5t28 -32.5l18 -25q2 -2 9.5 -13t16.5 -25.5t17 -27.5t12 -20q2 -4 16.5 -18t31 -30.5l31 -31l16.5 -16.5 q12 -14 22 -13t18.5 9t13.5 19.5t5 17.5z" />
<glyph unicode="o" horiz-adv-x="921" d="M35 604q0 27 7 55.5t17.5 57t22.5 55.5t20 47q4 10 7.5 18.5t7.5 18.5l2 2q4 12 8 16q10 16 35 48q18 29 29.5 42t35.5 25l6 4q4 4 11.5 9.5t11.5 9.5q12 8 29.5 15t40.5 24q8 4 14 8t16 6q20 4 40 13t42 14q25 4 48.5 5t48.5 -5q31 -2 65 -21q10 -4 17.5 -9t15.5 -11 t24 -15q27 -16 50 -47q4 -4 8 -9t8 -9q4 -6 6 -9.5t4 -7.5l12 -12q4 -6 7.5 -11t7.5 -9q4 -2 5 -4.5t5 -6.5t7 -8t7 -10q0 -10 9 -14q12 -6 18 -31q4 -10 8 -21.5t8 -21.5q2 -4 3 -10.5t4 -10.5q0 -2 1 -3t1 -3q4 -4 2 -8q4 -12 4 -20q6 -16 9 -33t7 -33q0 -8 2 -14t2 -15 q4 -18 8 -36.5t4 -36.5q-2 -72 -9 -124t-16 -88t-17.5 -56.5t-14.5 -28.5q0 -4 -4 -6q-10 -25 -18.5 -48.5t-28.5 -44.5q-18 -16 -35.5 -33.5t-28.5 -39.5q-8 -4 -22 -17q-4 -4 -14.5 -12t-14.5 -12q-16 -18 -43.5 -28.5t-52.5 -23.5q-8 -4 -15.5 -7t-15.5 -3q-10 -4 -17 -3 t-18 -1q-4 -2 -7 -1t-7 1q-6 -2 -12 -2h-19q-10 0 -18 -1t-18 1q-35 -4 -64 2h-8q-78 16 -139 90q-4 4 -27 29t-35 39q-14 16 -27.5 32.5t-19.5 39.5q0 4 -1 8t1 8h-2v2q-4 10 -8 21.5t-8 21.5q-8 16 -14.5 33.5t-10.5 38.5q0 8 -1 24.5t-1 33.5v34.5v30.5v12q0 16 -2 45 t-4 45q-2 0 -2 2v4v4zM164 649q-6 -23 -6 -42v-40v-49q0 -10 1 -35.5t5 -54.5t8 -56.5t10 -39.5q4 -10 7.5 -13.5t5.5 -7.5t4 -6t6 -10q4 -4 4 -7t4 -7q8 -14 20.5 -35t23.5 -39.5t19.5 -31.5t10.5 -15q10 -14 20 -20.5t21 -10.5q6 -4 10 -8q12 -10 27 -12q16 -2 40.5 -4.5 t57.5 8.5q4 2 19.5 8t34 14t35.5 17.5t23 17.5q4 4 9.5 9t9.5 9q6 8 22 21q16 14 38 49t42.5 73t34.5 72.5t14 47.5q2 12 3.5 42.5t2.5 67.5t-1 71t-7 50v4q-10 41 -18 66.5t-16 42.5q-4 10 -15.5 27.5t-26 36t-27.5 35.5t-22 26q-10 10 -22 15t-27 11q-4 6 -8 6 q-4 4 -16.5 10.5t-30.5 10.5q-20 4 -49 -2q-4 0 -6 -2q-20 -6 -49 -13.5t-58 -27.5q-23 -16 -48 -32.5t-32 -31.5q0 -4 -4 -6q-8 -8 -13 -15t-9 -18q-2 -2 -2 -3t-2 -3l-2 -2v-2q-8 -8 -20.5 -34.5t-25 -54.5t-21.5 -51.5t-9 -25.5z" />
<glyph unicode="p" horiz-adv-x="823" d="M754 825q-8 -49 -18.5 -80.5t-22 -52t-19.5 -32t-14 -19.5q-4 -4 -8 -9t-8 -11q-12 -25 -32 -32t-40 -28q-20 -20 -44 -33.5t-45.5 -22.5t-39 -15.5t-23.5 -14.5q0 -2 -2 -2q-20 -14 -31.5 -21.5t-31.5 -17.5t-40 -19t-36 -26q-4 -4 -12 -4q-8 -2 -27.5 -24.5 t-32.5 -53.5q-2 -27 -3 -58.5t1 -35.5q2 -16 -1 -43t-3 -35q0 -14 1 -44t-1 -46q0 -4 5 -22.5t1 -26.5q-2 0 -2 -2q-2 -2 -2 -3t-2 -3q-6 -6 -25.5 -8.5t-42 -1t-41 3.5t-20.5 6q-4 6 -4 7v7q2 10 7 21.5t5 33.5q-2 20 0 46t2 42q10 78 7 172.5t2 212.5q0 23 2 89.5t0 150.5 q0 6 1 24.5t1 26.5q4 14 1 26.5t-1 29.5q6 35 -14.5 58t-61.5 21q-18 2 -25.5 14.5t-10.5 26t-2 24.5t1 13q0 18 10.5 27.5t22.5 14.5t24.5 6t16.5 1q10 0 18 -1t19 1q8 0 15 -2t15 0q4 2 18.5 2h30t30 -1t18.5 -1q31 2 61 0q10 4 23 2q10 -2 18 -2t18 -2h25h18.5h26.5 t25.5 -1t17.5 -1h23.5t23.5 -2q41 -10 83 -21.5t65 -27.5q35 -23 55 -62.5t31 -72.5q2 -2 2 -11.5v-20.5t-1 -21.5t-1 -12.5zM618 768q6 18 10.5 48t-1.5 50q-10 31 -22.5 50.5t-35.5 31.5q-6 4 -20 7t-27.5 5.5t-25 4.5t-13.5 2h-6q-23 0 -60.5 1t-60.5 -1q-20 0 -38.5 -1 t-38.5 -12q-10 -4 -20.5 -19t-14.5 -26q-4 -8 -6 -15t0 -26v-32.5v-53t-1 -56.5t-1 -44q2 -4 1 -6t-1 -6q-4 -10 -2 -18.5t-1 -18.5q-4 -25 -3 -45.5t11.5 -32.5t31 -15t55.5 9l12 6q10 2 24.5 9t29 14.5t23.5 13.5t11 6q33 20 57.5 27.5t51.5 38.5q25 29 47 47t34 57z" />
<glyph unicode="q" horiz-adv-x="935" d="M909 -51q18 -2 30.5 -15.5t18 -32t0 -39t-21.5 -34.5q-4 -4 -14.5 -11t-20.5 -7q-27 -2 -38 -5.5t-25 0.5q-33 8 -77 34t-63 57l-8 14q-4 4 -4 9t-4 9q-8 10 -10 17.5t-6 11.5q-2 6 -4.5 13t-12.5 22q-6 10 -10 18t-7 16.5t-7 14.5q-63 -45 -133 -49h-7q-16 0 -32.5 2 t-32.5 6q-18 6 -38 10l-40 8q-8 2 -16.5 3.5t-16.5 5.5t-15 8t-15 8q-23 16 -39.5 35.5t-30.5 42.5l-25 29l-18 20l-33 43l-24 33q-16 23 -23.5 45t-17.5 51q0 2 -1 3t-1 3q-4 10 -9.5 31.5t-8.5 58.5t-1 89.5t12 123.5q4 18 10.5 36t12.5 34l12 29l25 61q8 25 21.5 46.5 t27.5 45.5q8 16 24.5 31.5t35 31l37 31t30.5 27.5q25 25 57 37l25 12q18 8 37 14q37 10 67 11q49 0 97 -21q10 -4 21 -9t22 -11l32 -19q8 -4 13.5 -9t13.5 -11l10 -10h2l47 -41l21 -21l4 -6l12 -12t17 -10l28 -56l25 -49q4 -4 4 -9t2 -9v-2q4 -10 6 -19.5t4 -19.5l4 -33 q0 -25 5.5 -49.5t15.5 -53.5q0 -2 1 -14t2 -26.5t1 -27.5t-2 -20q0 -6 -2 -10q-4 -16 -10.5 -42.5t-10.5 -43.5q0 -2 -1 -5t-1 -7l-22 -123q-6 -16 -12.5 -28.5t-16.5 -28.5q-6 -8 -19.5 -24.5t-27.5 -36t-26.5 -39t-16.5 -31.5q18 -39 31.5 -75t19.5 -48q16 -25 43 -39 q18 -16 40.5 -7t51.5 7zM532 104q29 10 20 24.5t-28 31.5q-16 10 -37.5 16t-42.5 8h-2q-10 -2 -19 -3t-24 -5q-41 -20 -41 -35q0 -10 8.5 -14t18.5 -8q8 0 15.5 -3t15.5 -7t17 -4.5t18 -4.5q20 -8 41 -8q14 0 26 8zM709 291q8 12 16 36.5t15.5 52.5t12.5 51.5t5 33.5l8 49 q4 20 7 39.5t1 40.5q0 92 -44 178t-95 137q-18 16 -44 32.5t-54.5 27t-57 12.5t-53.5 -10q-2 0 -3 -1t-5 -1q-14 -6 -27.5 -12.5t-25.5 -16.5q-10 -6 -24.5 -19.5t-30 -28.5t-29 -29.5t-19.5 -22.5q-10 -12 -22.5 -38t-28.5 -63q0 -4 -2 -4q-6 -16 -13.5 -49t-13.5 -68.5 t-10 -66.5t-4 -43q0 -16 4 -47t13.5 -62.5t23.5 -58.5t33 -35q4 -4 6 -4q6 -10 22.5 -21.5t36.5 -11.5q4 0 9.5 1t9.5 1q8 2 8 4t10 2q8 2 14.5 2.5t10.5 0.5l24 6q12 2 23.5 4t15.5 2t7 1t7 1t6.5 -1t6.5 -1q8 0 19 -2t24 -6q41 -8 78.5 -30t54.5 -36q8 6 18.5 14.5 t12.5 10.5l28 32q7 5 15 17z" />
<glyph unicode="r" horiz-adv-x="780" d="M711 84q6 -16 20 -35.5t10 -34.5q-4 -6 -27.5 -10t-52 -4t-52 3t-25.5 7q-10 16 -11.5 25.5t-0.5 18.5t0 20.5t-11 29.5q-2 2 -7 17.5t-15 30.5q-2 4 -4.5 7t-4.5 7q-12 18 -18 38.5t-18 39.5v4q-2 2 -9.5 19.5t-17.5 39.5q-10 25 -25 55l-7 14q-7 15 -15 33.5t-16.5 35 t-10.5 20.5q-16 27 -40.5 27t-47 -13.5t-38 -36t-13.5 -43.5q-2 -25 -3 -57.5t1 -36.5v-30.5t-1 -48t-2 -46t-1 -24.5q0 -16 1 -45t-1 -45q0 -4 5 -22.5t1 -27.5q-2 0 -2 -2q-2 -2 -2 -3t-2 -3q-6 -6 -28.5 -8t-47.5 -1t-45.5 3t-22.5 6q-4 6 -4 7v8q2 10 7.5 21t5.5 34 q-4 20 5 44.5t9 43.5q-2 2 -2 17.5v31.5t1 32.5t1 22.5q0 8 1 38t3 66t3 71.5t-1 54.5q-2 12 0 24.5t2 24.5q2 25 1 49.5t1 48.5q2 25 2 48.5v45.5q0 31 -1 47.5t-1 45.5q-2 31 -2 55t-4 42.5t-17.5 29t-39.5 10.5q-47 -2 -59.5 25.5t-2.5 58.5q6 20 18.5 30.5t25 13.5 t23.5 2t15 -1h34.5t35 -1t41 -2t55.5 -1q8 0 30.5 1t47 2t46.5 1t26 -4h21t22 -2h24.5t24.5 -2q20 -4 41.5 -13.5t41 -20.5t32 -19.5t14.5 -8.5q31 -23 47 -56.5t35 -68.5q4 -4 4 -9t4 -9q0 -4 -2 -21.5t-6 -40t-9.5 -43t-11.5 -28.5q-10 -12 -14 -23q-12 -23 -27.5 -40 t-36.5 -40q-18 -16 -37.5 -31.5t-37.5 -23.5q-23 -23 -32 -38t-5 -54q2 -12 4 -17.5t5 -10.5l6 -10t7 -17q4 -6 8.5 -12.5t8.5 -14.5q14 -25 19 -45.5t20 -46.5q10 -14 15 -30.5t13 -29.5q10 -16 16.5 -28.5t14.5 -28.5q6 -12 10 -19.5t8.5 -12.5t8.5 -12t10 -19 q2 -4 7 -15.5t11 -22t9 -14.5zM432 664q45 25 83 53t58.5 61t16.5 74t-43 90q-14 12 -29 23q-12 6 -32.5 9t-24.5 5h-6q-23 0 -45.5 3t-47.5 1q-20 0 -28 -1t-31 -9q-10 -4 -21.5 -20.5t-15.5 -26.5q-2 -8 -4 -22.5t0 -31.5q2 -16 3 -51t-1 -69q2 -4 1 -6.5t-1 -6.5 q0 -6 -1 -19t-1 -27.5v-27v-16.5q4 -27 16.5 -34t26.5 -6t25.5 7.5t15.5 8.5q10 2 24.5 8t27 12t22.5 12.5t12 6.5z" />
<glyph unicode="s" horiz-adv-x="802" d="M745 147q-10 -33 -38.5 -72.5t-51.5 -68.5q-8 -10 -16 -16t-16 -15q-16 -10 -33 -23t-33 -24q-8 -4 -18.5 -6t-20.5 -4q-4 0 -14 -6t-19 -4l-45 -2l-49 -6q-51 -6 -104 10q-2 2 -6.5 2t-8.5 2q-16 2 -33.5 6t-33.5 17q-8 6 -21.5 14t-26 15t-22.5 13.5t-12 6.5 q-8 4 -18.5 13t-12.5 11q-4 4 -8 10.5t-10 12.5q-6 8 -12.5 15t-14.5 15q-10 6 -16 25q-6 2 -6 10q-4 4 -9 17q-4 6 -4 11t-4 11q0 2 -1 2t-1 2q-4 16 -7 45t-5 45v39q0 2 2 11.5t5 21.5t5 23.5t2 15.5q0 12 11.5 39t17.5 39q6 10 11 17t13 16q20 20 35 43q6 8 14.5 14 t16.5 10q4 2 15.5 6t24.5 6.5t26.5 -3t21.5 -21.5q4 -10 8 -31.5t-4 -34.5q-6 -6 -14 -10q-16 -18 -38 -40.5t-32 -41.5q-4 -4 -3 -7t-3 -9q-4 -8 -8 -28.5t-6 -47.5t1 -54.5t13 -47.5q27 -55 49.5 -75t32.5 -24l8 -4q16 -4 31.5 -14t32.5 -14q23 -4 39 -9.5t38 -7.5 q6 2 21 -2q29 -6 59 8q16 8 34 12.5t32 14.5q8 2 14 7t15 11q8 8 14 10.5t10 4.5t9 5t14 13q4 6 9 12.5t11 14.5q4 8 9 15t7 16q6 14 12.5 39.5t9.5 57.5t2 66.5t-11 69.5q-2 6 -10.5 21.5t-18.5 32t-19.5 30.5t-15.5 18l-8 9q-8 8 -16 15t-17 17q-4 4 -8 7.5t-8 7.5l-8 6 q-16 16 -31.5 30.5t-24.5 18.5q-2 0 -10 9t-19 20.5t-22.5 21.5t-19.5 17q-8 6 -20.5 18t-24 23.5l-20.5 20.5t-9 11q-4 6 -13 17.5t-18.5 25t-15.5 24.5t-6 15q-4 8 -9.5 20.5t-7.5 24.5v13q0 37 8.5 64.5t18.5 47t20.5 31.5t14.5 16q23 27 51.5 41.5t54 18.5t45 4h25.5 q23 -4 38 -5t38 -10q10 -4 24.5 -13t27.5 -22.5t25.5 -26.5t16.5 -24q0 -4 4 -12l4 -18q8 -33 4 -73t-14 -56q-4 -8 -10 -12.5t-13 -8.5q-10 -6 -27.5 -10t-33.5 2q-29 8 -29 37q-2 23 2 38t9 27q2 4 -0.5 12.5t-2.5 12.5l-6 8t-18 18.5t-29.5 16.5t-42.5 4q-4 0 -11 -1 t-11 -3q-14 -6 -41 -31q-6 -6 -16.5 -23.5t-6.5 -62.5q4 -27 23.5 -48t23.5 -25q8 -12 30 -32t45.5 -39.5t43 -33.5t25.5 -16q6 -4 15 -14.5t19 -20.5q29 -18 50.5 -44t44.5 -50q20 -20 37.5 -48t31.5 -53q6 -10 12.5 -33.5t11.5 -51t7 -52t0 -37.5z" />
<glyph unicode="t" horiz-adv-x="886" d="M500 801q-2 -12 -2 -44v-69t1 -71.5t1 -51.5q2 -29 1 -57.5t-1 -56.5q0 -18 -2 -36t-2 -36q0 -12 -1 -33.5t-3.5 -43t-2.5 -40v-22.5v-31q0 -6 -1 -13.5t1 -15.5q6 -41 3 -94q0 -25 4 -37t7 -18t4 -11.5t-3 -13.5q-6 -10 -33 -16t-57.5 -6t-53 6t-18.5 20q6 23 8 36t2 30 q0 4 1 15t1 23.5t1 22.5t1 13q4 23 4 43v43q0 16 1 33.5t4 33.5q0 31 1 60.5t3 58.5q0 10 -1 19.5t-1 19.5q2 10 3 29.5l2 39t2 36t1 22.5q-2 10 -2 18t-2 19v29.5t-2 27.5q-2 18 0 36.5t4 37.5q2 14 2 22t-1 14.5t-1 14.5v24q2 16 1 28.5t-3 29.5q-2 29 -18.5 38t-43.5 13 q-27 2 -48 2t-42 2q-16 2 -30.5 -1t-30.5 1q-23 -2 -43.5 -10t-38.5 0q-8 2 -10.5 11t-2.5 19.5t3.5 19.5t3.5 13q2 6 6 19.5t10 26t13 20.5t14 8q16 -4 31.5 -3t31.5 5q16 2 35 0q18 -2 44 -3t51.5 -2t51 -1t43.5 2q25 2 68 2h66h19h27.5h27h18.5h20q23 -2 60.5 -6t60.5 0 q8 2 16 -2q4 -4 8.5 -16.5t8.5 -26.5t8 -26.5t8 -16.5q10 -8 2 -21q-16 -29 -45 -28q-23 2 -57.5 8t-57.5 4h-21h-31.5h-32h-17.5q-33 0 -43 -28.5t-10 -47.5q0 -18 -1 -33.5t-3 -29.5z" />
<glyph unicode="u" horiz-adv-x="813" d="M66 612v40t-5 38q-4 29 -1 55.5t6 55.5q4 12 2 26.5t-2 28.5v129v8t2 8q0 31 -8.5 38.5t-8.5 23.5q4 18 19 27q2 2 23.5 2h47t46 -2.5t22.5 -4.5q8 -6 6 -12t-2 -14q0 -4 -6 -28.5t-6 -29.5q-2 -12 -2 -23t-2 -24q4 -55 -3.5 -119.5t-3.5 -121.5q-6 -45 -4 -82 q2 -27 3 -54.5t-3 -56.5q2 -25 8.5 -63.5t13.5 -75.5t14 -66.5t14 -38.5q0 -2 6 -14t14 -26.5t17.5 -30t17.5 -23.5q57 -53 133 -50t131 58q33 35 49.5 89.5t22.5 115t5 117.5t-1 96q2 2 3 39t1 82v86v51q-2 16 -1 35t1 37q-8 61 -18.5 99t1.5 57q2 4 20.5 7t41 4t42 1h23.5 q29 -6 35 -29q2 -16 -9 -34.5t-7 -34.5q4 -31 1 -60.5t-1 -58.5q2 -23 2 -43.5v-40.5q0 -12 -2 -37t-5 -50.5t-4 -48t3 -32.5q2 -16 1 -32.5t-3 -33.5q0 -16 -2 -30.5t-2 -30.5q0 -20 2 -40.5t2 -41.5v-27q-8 -57 -21.5 -120.5t-42.5 -114.5q-4 -4 -8 -14.5t-8 -14.5 q-33 -39 -77 -71.5t-107 -57.5q-4 -2 -8.5 -2t-8.5 -4q-45 -6 -79 -2t-74 20q-53 23 -86 51.5t-50 43.5q-10 6 -16 16t-10 21q-6 14 -16.5 26t-16.5 29q-4 6 -5 12t-5 14q-14 41 -31.5 105.5t-19.5 122.5q-2 27 -2 75.5t2 75.5z" />
<glyph unicode="v" horiz-adv-x="854" d="M803 1087q10 -4 18 -8t4 -20q-2 -10 -4 -14.5t-6 -8.5l-8 -8q-10 -14 -19 -33v-2q-8 -25 -8 -22q-2 -4 -6 -15.5t-9 -27t-9 -30.5t-6 -24q-2 -6 -11.5 -50t-21.5 -96t-23.5 -101t-15.5 -66q0 -4 -4 -12l-2 -2q-2 -4 -2 -7t-2 -8l-6 -18v-2q-2 -4 -3 -16h-2v-2 q-4 -10 -7 -22.5t-7 -25.5q-2 -4 -2 -7t-2 -7q-2 -8 -8 -32.5t-13.5 -58.5t-16.5 -73t-17 -73q-4 -10 -6.5 -17.5t-2.5 -11.5q0 -6 -4 -19q-4 -10 -6 -20t-2 -18q-2 -20 -2 -35t2 -19q8 -18 2 -26.5t-10 -12.5q-10 -6 -25 -6q-12 0 -26.5 2t-30.5 6h-39q-14 -2 -31.5 -2 h-33.5q-23 -6 -39 -6q-18 0 -25 6q-6 4 -12 16.5t2 30.5q2 4 1 16.5t-3 16.5q-6 20 -10 49q-4 16 -4 21q-2 4 -3.5 11t-5.5 18l-5 20t-9 38t-16.5 67.5t-24.5 111.5q-2 4 -2 7t-2 7q-4 12 -8 31t-21 70q-2 0 -2 4q-4 4 -4 10q-4 16 -15 65.5t-23.5 101.5t-23 96t-10.5 50 q-2 8 -6 23.5t-9 31t-9 28t-6 14.5q0 -2 -8 22v2q-4 10 -8.5 16.5t-10.5 14.5l-8 8q-4 4 -6 8.5t-4 14.5q-4 16 4 20t18 8q4 0 6 1t6 1v3q6 2 52 2h49q8 -4 12 -7l2 -2q10 -8 10 -22v-21v-10q2 -2 2 -10q0 -6 2.5 -22.5t4.5 -20.5q0 -2 2 -10q2 -6 3 -15.5t3 -19.5 q2 -4 12 -42t21.5 -83t20.5 -83t9 -40t1 -3t1 -5q2 -4 2 -7t2 -7q6 -23 12.5 -46.5t14.5 -46.5q0 -4 4 -16q4 -8 6 -15.5t2 -17.5q0 -6 2 -13t7.5 -24.5t13.5 -50.5t22 -88v-2q0 -4 2 -11t5 -18q12 -47 17 -58t7 -19q10 -39 35 -44.5t41 29.5q4 12 8 32.5t14 59.5 q4 10 5.5 18.5t3.5 12.5l2 2q4 8 16 54t31 120q0 6 1 11.5t3 11.5v10q0 6 10 46t22.5 88t23.5 89t16 49v6q0 12 6 23q2 2 2 6q4 10 8 27q2 6 4 13t4 13q2 4 5 23.5t5 30.5q2 8 2 10q2 4 5.5 21.5t3.5 21.5v12q2 4 2 10q-2 6 -2 20.5t10 22.5l2 2q4 4 12 5q4 2 17.5 2h29.5 q41 0 54 -4q4 0 6 -1.5t6 -1.5z" />
<glyph unicode="w" horiz-adv-x="1257" d="M29 1044q-4 16 10 23.5t24 7.5q12 4 54 4h29.5t17.5 -2q8 0 12 -4l4 -2q10 -8 10 -22.5t-2 -20.5q-2 -4 -1 -5t1 -5v-12q0 -4 3.5 -21.5t5.5 -21.5q0 -2 2 -11q2 -10 5 -29.5t5 -23.5q4 -6 5 -13t3 -14q4 -16 8 -26q0 -2 1 -3t1 -3q6 -10 6 -23v-6q31 -117 47.5 -184.5 t27.5 -113.5t21.5 -85t28.5 -96l9 -33q6 -35 19 -61.5t28.5 -37t30 -3t20.5 42.5q0 4 2 5t5 5t7 14t10 35q2 10 6.5 17.5t4.5 11.5v2l2 2q4 8 20.5 45t22.5 78v2q2 6 5 19t5 26.5t3 25t1 13.5q6 20 -1 70.5t-17.5 103.5t-20.5 96t-10 49q-2 8 -6 23.5t-9.5 31t-9.5 26.5 t-6 15q0 -2 -8 23v2q-10 25 -18 33l-7 8q-4 4 -7 8t-5 14q-4 16 5.5 20.5t17.5 8.5q4 0 6 1t6 1q6 2 18.5 3t34.5 1h29.5t17.5 -2q10 0 13 -4q2 0 2 -1t2 -1q10 -8 10 -22.5t-2 -20.5q-2 -4 -1 -5t1 -5v-12q0 -4 3 -21.5t5 -21.5q0 -2 2 -11q2 -10 5 -29.5t5 -23.5 q4 -6 5.5 -13t3.5 -14q4 -16 8 -26q0 -2 1 -3t1 -3q6 -10 6 -23v-6q2 -8 14.5 -49t24.5 -89t22.5 -88t10.5 -46v-11l6 -22q16 -74 28.5 -120t16.5 -54l2 -2v-2l8 -29q10 -39 13 -51t6 -25q14 -23 27 -22.5t24.5 13.5t19.5 36.5t15 48.5q6 18 6 29l2 2v2q12 55 20 87t13.5 49 t7.5 23.5t2 12.5q0 10 2 17t6 16q4 12 4 16q8 23 11 47.5t10 46.5q4 8 4 15q2 4 2 8q0 2 8 40t17 83t17.5 82.5t10.5 42.5q6 18 6 34q2 8 2 11q2 4 4 20t2 23q0 4 1 6t1 4q2 4 2 10q-2 6 -2 20.5t11 22.5l2 2q4 4 6 4t6 2h49q45 0 51 -2l2 -2q2 0 4 -1t7 -1q10 -4 18 -8 t4 -21q-2 -10 -4 -14t-6 -8l-6 -8q-12 -12 -19 -31l-2 -2l-8 -23q-2 -2 -6 -14t-9.5 -27.5t-9.5 -31t-6 -23.5q0 -6 -9 -49t-19.5 -95t-21.5 -100.5t-15 -64.5q0 -6 -4 -10v-4q0 -2 2 -5l-6 -14q-12 -41 -13.5 -59.5t-5.5 -30.5q0 -6 -4 -14q-16 -70 -26.5 -112t-16.5 -66.5 t-10 -36t-6 -19.5q-6 -23 -7 -28q-4 -8 -4 -21l-12 -49q-2 -4 -2 -16.5v-16.5q8 -18 2 -30.5t-12 -16.5q-6 -6 -23 -6q-20 0 -41 6h-21t-20 2h-39q-16 -4 -30.5 -6t-24.5 -2q-18 0 -26 6q-4 4 -9.5 12.5t2.5 26.5v18.5t-2 34.5q0 8 -2 18.5t-6 20.5q0 6 -4 19q0 4 -2 11 t-6 17q-4 8 -5 15.5t-3 11.5q-2 6 -4 8q-10 29 -22.5 32t-24 -8.5t-21.5 -28.5t-12 -30q-2 -10 -4 -17t-2 -11q-4 -8 -5 -21l-12 -49q-2 -4 -2 -16.5v-16.5q8 -18 2 -30.5t-12 -16.5q-6 -6 -25 -6q-8 0 -18 -2t-21 2h-33.5t-31.5 2h-39q-16 -4 -30.5 -6t-26.5 -2 q-16 0 -25 6q-4 4 -10 12t4 27v18.5t-2 34.5q0 8 -2 21.5t-6 23.5l-4 19q0 4 -2.5 11t-6.5 17l-55 238q0 6 -4 14l-25 86l-4 14l-2 3q-4 8 -4 12l-72 313q-2 8 -6 23.5t-9 31t-9 26.5t-6 15q0 -2 -8 23v2q-10 25 -19 33q-6 6 -6 8q-4 4 -7 8t-5 14z" />
<glyph unicode="x" horiz-adv-x="782" d="M760 18q6 -6 2 -14t-12.5 -9t-20.5 -3q-8 0 -20 -4h-37h-17h-14q-16 0 -23.5 -2t-17.5 2t-12 18t-2 25v2q-2 6 -2 12t-2 12q-4 4 -11.5 20.5t-11.5 22.5q-2 2 -6 11q-4 10 -12.5 28.5t-10.5 22.5q-10 12 -17 24.5t-13 26.5q-4 4 -6 8q-8 12 -11 21q-4 14 -11 26.5 t-15 24.5q-4 6 -7.5 13t-7.5 16q-12 14 -21 31.5t-18.5 23.5t-20.5 -4.5t-30 -46.5q-4 -10 -8 -16.5t-8 -12.5q-8 -14 -14.5 -25.5t-10.5 -23.5q-2 -10 -12 -25q-2 0 -4 -6q-4 -6 -7 -11t-7 -13q-4 -6 -7.5 -12.5t-9.5 -14.5q-4 -4 -12 -22.5t-12 -28.5q-4 -8 -4 -11 q-4 -4 -12.5 -22.5t-8.5 -22.5q-6 -10 -6 -22v-2q0 -10 -2 -23.5t-12 -19.5q-6 -2 -15 -2h-8q-2 2 -8 2h-10h-15q-6 -2 -18 -2q-6 0 -16.5 1t-18.5 1q-6 2 -11 2t-12 2q-10 4 -18 5t-12 7t0 17q4 8 13 20t20 23q12 16 14 18q0 2 2 2l10 17.5t4 5.5t12.5 18t22.5 37.5 t24.5 41t16.5 30.5q2 4 10 21t20.5 42t27 54.5t30.5 60.5q20 37 28.5 83t-1.5 89v2q-16 33 -29 59q-10 23 -19.5 44.5t-13.5 25.5h-2l-2 2q-2 4 -5 11t-11 18q-29 55 -40 78.5t-15 31.5q0 4 -9 21q-10 27 -26.5 61.5t-22.5 50.5q-10 18 -15 24.5t-9 10.5t-9.5 7t-9.5 12v2 q-4 8 -4 16v2q2 4 11.5 11t66.5 7q8 0 29.5 -1t31.5 -5h2q4 -2 12.5 -9t4.5 -30q0 -4 4 -16t8 -16q14 -23 29 -58l10 -20q0 -6 16 -29q10 -16 21.5 -37.5t21.5 -44.5q27 -51 52.5 -91t35.5 -40q6 0 15.5 13.5t21 34t22.5 44t21 43.5q10 25 21.5 46.5t21.5 37.5l10.5 17.5 t6.5 9.5l10 20q6 14 14 30.5t13 27.5q4 4 8 16t6 16q-4 23 4 30t12 9q10 4 32 5.5t32 1.5q55 0 65.5 -7.5t10.5 -11.5v-2q2 -8 -3 -14l-2 -2q-8 -14 -16 -21q-4 -4 -9 -10t-16 -25q-6 -16 -22 -51t-27 -61q-4 -8 -6 -12.5t-4 -8.5q-2 -6 -14.5 -31.5t-40.5 -78.5 q-4 -10 -9.5 -17.5t-7.5 -11.5v-2h-2q-6 -8 -27.5 -48t-37.5 -81l-2 -2q-16 -41 -7 -82t25 -76q16 -31 33.5 -64.5t32 -62t25 -49t12.5 -25.5q4 -10 16 -29.5t24.5 -41t22.5 -37.5t12 -19q4 -4 7.5 -9t7.5 -13q4 -4 7 -10t7 -11q10 -10 19.5 -22.5t13.5 -22.5z" />
<glyph unicode="y" horiz-adv-x="796" d="M817 1065q2 -10 -2 -16h-2q-2 0 -2 -2q-8 -14 -14 -19q-4 -4 -9.5 -10t-15.5 -25q-10 -16 -25.5 -49t-25.5 -61l-7 -10.5t-5 -8.5q0 -4 -15.5 -34.5t-36 -71.5t-43 -83t-36.5 -69q-4 -10 -9.5 -16t-7.5 -10v-2h-2q-29 -37 -42 -77t-23 -89q0 -37 -2.5 -73t-4.5 -65.5 t-4 -50t-2 -26.5q-2 -18 0 -47t6 -35v-6.5t5 -20.5v-2q2 -18 10 -35q4 -8 4 -10q4 -6 5 -10t1 -15q0 -16 -11.5 -20t-33.5 -4h-10t-17 -2q-16 -2 -31.5 -3t-29.5 -1t-17 2q-8 2 -11 5l-7 7q-8 8 -3 21.5t9 21.5v4q8 12 8 23q2 4 3 21.5t-1 25.5l2 10q0 10 2.5 31.5t0.5 25.5 v31v13.5t-3 13.5v6q-2 6 -3 21.5t1 21.5q4 14 4.5 27.5t0.5 27.5v44.5t-11 37.5q-4 23 -12 48.5t-20 43.5q0 6 -3 8v2q-23 53 -43 95q-16 35 -33.5 66.5t-21.5 37.5q-2 4 -4 10t-8 17q-29 55 -42 77.5t-17 28.5q0 8 -9 21q-10 29 -27.5 62.5t-23.5 47.5q-10 18 -16 24.5 t-11 8.5l-8 8t-8 13v2q-4 6 -4 16v2q0 2 2 5t9 5t23.5 4t45.5 2q8 0 29.5 -1t31.5 -5h2q4 -2 12.5 -8t4.5 -29q0 -4 4 -17t6 -17q10 -8 18.5 -22.5t14.5 -31.5l10 -20l6 -16q6 -15 13.5 -34.5t15.5 -37t12 -23.5q10 -16 18.5 -37.5t18.5 -38.5l2 -6q27 -51 48.5 -90 t31.5 -39q6 0 17.5 13.5t23.5 33t25.5 43t23.5 43.5l2 7q4 8 15.5 30.5t22.5 47t22.5 47t15.5 30.5q8 20 14 27q2 4 4 9t6 9q8 16 16.5 31.5t14.5 24.5q4 4 7 17t5 17q-4 23 5.5 29t13.5 8q10 4 31.5 5t31.5 1q57 0 67.5 -6t10.5 -10v-2v0z" />
<glyph unicode="z" horiz-adv-x="839" d="M748 143q10 -2 15 -11t8 -20.5t4 -21.5t3 -14q4 -8 3 -35t-5 -37q-16 -12 -35.5 -10t-38.5 0q-8 -2 -16 -1t-16 1q-6 2 -19 2q-16 0 -30.5 -2t-30.5 2q-2 0 -10 -4h-11q-4 2 -32.5 4t-62.5 4t-62.5 2h-30.5h-6q-20 4 -39 7t-39 -1q-14 -4 -40 -5t-53.5 0t-56 1h-49.5 q-18 0 -30.5 10.5t-17.5 24.5t0 31.5t22 29.5v2q2 0 11 14.5t15 18.5q4 4 9.5 7t9.5 8q4 4 12 19t12 21q0 2 6 11q8 8 19.5 24.5t13.5 20.5q4 6 7 12t8 14l12 25q0 2 1 3t1 3q4 14 12 23q10 8 17.5 18t13.5 25q4 6 7 13t7 13q10 18 20.5 36t20.5 34q4 4 5 7t3 7q16 23 27 41 q14 20 27 43q2 4 3 7t5 8q4 10 8 17t8 15q10 10 14.5 19.5t8.5 23.5q27 35 51.5 76t40.5 74q18 31 31 49q10 41 5 59.5t-42 24.5q-20 8 -36.5 9t-37.5 1q-45 2 -84 -1t-84 -1q-23 2 -43 -4t-43 -4q-16 0 -33.5 -12.5t-34.5 -8.5q-10 2 -14 11.5t-7 20.5t-4 21.5t-3 14.5 q-4 8 -3 34.5t5 37.5q16 12 33.5 10t36.5 0q8 2 16 1t16 -1q6 -2 17 -2q14 0 29.5 2t31.5 -2q4 0 8 4h8q4 -2 31 -4t56.5 -4t54 -2h28.5h7q20 -4 38.5 -7t36.5 1q14 4 39 5t52.5 0t54 -1h45.5q35 0 40 -24.5t9 -49.5q2 -6 0 -15.5t-20 -19.5q-4 -2 -13.5 -11t-11.5 -13 q-4 -10 -13.5 -24.5t-19.5 -29.5q-4 -4 -6 -9t-6 -9q0 -6 -14 -25q-4 -8 -11.5 -19t-22 -34.5t-39 -61.5t-63.5 -100q-2 -4 -3 -7t-5 -7q-6 -12 -15 -29.5t-36 -64.5q0 -2 -2 -4q-2 -4 -2 -6.5t-4 -6.5q-6 -12 -23.5 -40.5t-40 -64.5t-46 -73t-42.5 -63q-10 -27 -14 -55.5 t10 -53.5q4 -4 10.5 -7t10.5 -5q20 -8 36.5 -9t38.5 -1q47 -2 94.5 1t94.5 1q23 -2 44 4t44 4q16 0 34 12t36 8z" />
<glyph unicode="&#x2000;" horiz-adv-x="858" />
<glyph unicode="&#x2001;" horiz-adv-x="1716" />
<glyph unicode="&#x2002;" horiz-adv-x="858" />
<glyph unicode="&#x2003;" horiz-adv-x="1716" />
<glyph unicode="&#x2004;" horiz-adv-x="572" />
<glyph unicode="&#x2005;" horiz-adv-x="429" />
<glyph unicode="&#x2006;" horiz-adv-x="286" />
<glyph unicode="&#x2007;" horiz-adv-x="286" />
<glyph unicode="&#x2008;" horiz-adv-x="214" />
<glyph unicode="&#x2009;" horiz-adv-x="343" />
<glyph unicode="&#x200a;" horiz-adv-x="95" />
<glyph unicode="&#x202f;" horiz-adv-x="343" />
<glyph unicode="&#x205f;" horiz-adv-x="429" />
<glyph unicode="&#x25fc;" horiz-adv-x="1085" d="M0 1085h1085v-1085h-1085v1085z" />
</font>
</defs>
</svg>
